%TF.GenerationSoftware,KiCad,Pcbnew,7.0.6*%
%TF.CreationDate,2024-11-05T16:24:24-08:00*%
%TF.ProjectId,LED-Driver,4c45442d-4472-4697-9665-722e6b696361,rev?*%
%TF.SameCoordinates,Original*%
%TF.FileFunction,Drillmap*%
%TF.FilePolarity,Positive*%
%FSLAX45Y45*%
G04 Gerber Fmt 4.5, Leading zero omitted, Abs format (unit mm)*
G04 Created by KiCad (PCBNEW 7.0.6) date 2024-11-05 16:24:24*
%MOMM*%
%LPD*%
G01*
G04 APERTURE LIST*
%ADD10C,0.100000*%
%ADD11C,0.200000*%
G04 APERTURE END LIST*
D10*
X21601584Y-4889500D02*
X21601584Y-13716000D01*
X7623084Y-13716000D02*
X7623084Y-4889500D01*
X7623084Y-4889500D02*
X21601584Y-4889500D01*
X21601584Y-13716000D02*
X7623084Y-13716000D01*
D11*
X7878861Y-14032484D02*
X7878861Y-13832484D01*
X7878861Y-13832484D02*
X7926480Y-13832484D01*
X7926480Y-13832484D02*
X7955051Y-13842008D01*
X7955051Y-13842008D02*
X7974099Y-13861055D01*
X7974099Y-13861055D02*
X7983622Y-13880103D01*
X7983622Y-13880103D02*
X7993146Y-13918198D01*
X7993146Y-13918198D02*
X7993146Y-13946769D01*
X7993146Y-13946769D02*
X7983622Y-13984865D01*
X7983622Y-13984865D02*
X7974099Y-14003912D01*
X7974099Y-14003912D02*
X7955051Y-14022960D01*
X7955051Y-14022960D02*
X7926480Y-14032484D01*
X7926480Y-14032484D02*
X7878861Y-14032484D01*
X8078861Y-14032484D02*
X8078861Y-13899150D01*
X8078861Y-13937246D02*
X8088384Y-13918198D01*
X8088384Y-13918198D02*
X8097908Y-13908674D01*
X8097908Y-13908674D02*
X8116956Y-13899150D01*
X8116956Y-13899150D02*
X8136003Y-13899150D01*
X8202670Y-14032484D02*
X8202670Y-13899150D01*
X8202670Y-13832484D02*
X8193146Y-13842008D01*
X8193146Y-13842008D02*
X8202670Y-13851531D01*
X8202670Y-13851531D02*
X8212194Y-13842008D01*
X8212194Y-13842008D02*
X8202670Y-13832484D01*
X8202670Y-13832484D02*
X8202670Y-13851531D01*
X8326480Y-14032484D02*
X8307432Y-14022960D01*
X8307432Y-14022960D02*
X8297908Y-14003912D01*
X8297908Y-14003912D02*
X8297908Y-13832484D01*
X8431242Y-14032484D02*
X8412194Y-14022960D01*
X8412194Y-14022960D02*
X8402670Y-14003912D01*
X8402670Y-14003912D02*
X8402670Y-13832484D01*
X8659813Y-14032484D02*
X8659813Y-13832484D01*
X8659813Y-13832484D02*
X8726480Y-13975341D01*
X8726480Y-13975341D02*
X8793146Y-13832484D01*
X8793146Y-13832484D02*
X8793146Y-14032484D01*
X8974099Y-14032484D02*
X8974099Y-13927722D01*
X8974099Y-13927722D02*
X8964575Y-13908674D01*
X8964575Y-13908674D02*
X8945527Y-13899150D01*
X8945527Y-13899150D02*
X8907432Y-13899150D01*
X8907432Y-13899150D02*
X8888384Y-13908674D01*
X8974099Y-14022960D02*
X8955051Y-14032484D01*
X8955051Y-14032484D02*
X8907432Y-14032484D01*
X8907432Y-14032484D02*
X8888384Y-14022960D01*
X8888384Y-14022960D02*
X8878861Y-14003912D01*
X8878861Y-14003912D02*
X8878861Y-13984865D01*
X8878861Y-13984865D02*
X8888384Y-13965817D01*
X8888384Y-13965817D02*
X8907432Y-13956293D01*
X8907432Y-13956293D02*
X8955051Y-13956293D01*
X8955051Y-13956293D02*
X8974099Y-13946769D01*
X9069337Y-13899150D02*
X9069337Y-14099150D01*
X9069337Y-13908674D02*
X9088384Y-13899150D01*
X9088384Y-13899150D02*
X9126480Y-13899150D01*
X9126480Y-13899150D02*
X9145527Y-13908674D01*
X9145527Y-13908674D02*
X9155051Y-13918198D01*
X9155051Y-13918198D02*
X9164575Y-13937246D01*
X9164575Y-13937246D02*
X9164575Y-13994388D01*
X9164575Y-13994388D02*
X9155051Y-14013436D01*
X9155051Y-14013436D02*
X9145527Y-14022960D01*
X9145527Y-14022960D02*
X9126480Y-14032484D01*
X9126480Y-14032484D02*
X9088384Y-14032484D01*
X9088384Y-14032484D02*
X9069337Y-14022960D01*
X9250289Y-14013436D02*
X9259813Y-14022960D01*
X9259813Y-14022960D02*
X9250289Y-14032484D01*
X9250289Y-14032484D02*
X9240765Y-14022960D01*
X9240765Y-14022960D02*
X9250289Y-14013436D01*
X9250289Y-14013436D02*
X9250289Y-14032484D01*
X9250289Y-13908674D02*
X9259813Y-13918198D01*
X9259813Y-13918198D02*
X9250289Y-13927722D01*
X9250289Y-13927722D02*
X9240765Y-13918198D01*
X9240765Y-13918198D02*
X9250289Y-13908674D01*
X9250289Y-13908674D02*
X9250289Y-13927722D01*
M02*
