M48
; DRILL file {KiCad 7.0.6} date Tue Nov  5 16:22:26 2024
; FORMAT={-:-/ absolute / metric / decimal}
; #@! TF.CreationDate,2024-11-05T16:22:26-08:00
; #@! TF.GenerationSoftware,Kicad,Pcbnew,7.0.6
; #@! TF.FileFunction,Plated,1,2,PTH
FMAT,2
METRIC
; #@! TA.AperFunction,Plated,PTH,ViaDrill
T1C0.400
; #@! TA.AperFunction,Plated,PTH,ComponentDrill
T2C0.600
; #@! TA.AperFunction,Plated,PTH,ComponentDrill
T3C0.770
; #@! TA.AperFunction,Plated,PTH,ComponentDrill
T4C0.800
; #@! TA.AperFunction,Plated,PTH,ComponentDrill
T5C0.900
; #@! TA.AperFunction,Plated,PTH,ComponentDrill
T6C0.900
; #@! TA.AperFunction,Plated,PTH,ComponentDrill
T7C0.902
; #@! TA.AperFunction,Plated,PTH,ComponentDrill
T8C1.000
; #@! TA.AperFunction,Plated,PTH,ComponentDrill
T9C1.020
; #@! TA.AperFunction,Plated,PTH,ComponentDrill
T10C1.200
; #@! TA.AperFunction,Plated,PTH,ComponentDrill
T11C1.402
; #@! TA.AperFunction,Plated,PTH,ComponentDrill
T12C4.300
%
G90
G05
T1
X153.789Y-92.927
T2
X78.806Y-55.83
X78.806Y-129.54
X79.75Y-53.55
X79.75Y-58.11
X79.75Y-127.26
X79.75Y-131.82
X82.031Y-52.605
X82.031Y-59.055
X82.031Y-126.315
X82.031Y-132.765
X84.311Y-53.55
X84.311Y-58.11
X84.311Y-127.26
X84.311Y-131.82
X85.256Y-55.83
X85.256Y-129.54
X205.806Y-55.83
X206.065Y-129.165
X206.75Y-53.55
X206.75Y-58.11
X207.01Y-126.884
X207.01Y-131.445
X209.031Y-52.605
X209.031Y-59.055
X209.29Y-125.94
X209.29Y-132.39
X211.311Y-53.55
X211.311Y-58.11
X211.571Y-126.884
X211.571Y-131.445
X212.256Y-55.83
X212.515Y-129.165
T3
X142.036Y-110.49
X142.036Y-113.03
X142.036Y-115.57
X142.036Y-118.11
X142.036Y-120.65
X142.036Y-123.19
X142.036Y-125.73
X149.976Y-110.49
X149.976Y-113.03
X149.976Y-115.57
X149.976Y-118.11
X149.976Y-120.65
X149.976Y-123.19
X149.976Y-125.73
T4
X92.075Y-132.715
X104.775Y-132.715
X111.125Y-119.42
X111.125Y-124.42
X124.46Y-127.04
X124.46Y-132.04
X132.08Y-70.485
X134.62Y-53.38
X134.62Y-58.38
X136.006Y-112.395
X136.006Y-125.095
X140.335Y-88.305
X140.335Y-93.305
X140.95Y-54.62
X140.95Y-57.16
X140.95Y-59.7
X140.95Y-62.24
X140.97Y-76.835
X144.78Y-70.485
X149.225Y-70.485
X151.11Y-54.62
X151.11Y-57.16
X151.11Y-59.7
X151.11Y-62.24
X153.67Y-76.835
X154.305Y-63.5
X155.371Y-109.26
X155.371Y-114.26
X156.845Y-53.975
X156.845Y-58.975
X159.305Y-63.5
X161.925Y-70.485
X177.165Y-59.055
X177.165Y-68.58
X177.165Y-79.375
X177.165Y-90.17
X177.165Y-100.33
X177.165Y-109.855
X177.165Y-120.015
X177.165Y-130.175
X189.865Y-59.055
X189.865Y-68.58
X189.865Y-79.375
X189.865Y-90.17
X189.865Y-100.33
X189.865Y-109.855
X189.865Y-120.015
X189.865Y-130.175
T5
X114.295Y-131.445
X116.835Y-131.445
X194.94Y-59.055
X194.94Y-99.695
X194.94Y-120.015
X194.945Y-69.215
X194.945Y-79.375
X194.945Y-89.535
X194.945Y-109.855
X194.945Y-130.175
X197.48Y-59.055
X197.48Y-99.695
X197.48Y-120.015
X197.485Y-69.215
X197.485Y-79.375
X197.485Y-89.535
X197.485Y-109.855
X197.485Y-130.175
T6
X146.685Y-88.265
X146.685Y-95.885
X149.225Y-88.265
X149.225Y-95.885
X151.765Y-88.265
X151.765Y-95.885
X154.305Y-88.265
X154.305Y-95.885
X156.845Y-88.265
X156.845Y-95.885
X159.385Y-88.265
X159.385Y-95.885
X161.925Y-88.265
X161.925Y-95.885
X164.465Y-88.265
X164.465Y-95.885
T7
X94.425Y-123.655
X98.425Y-123.655
X102.425Y-123.655
T8
X81.915Y-71.755
X128.27Y-120.015
X136.006Y-107.315
X139.181Y-132.715
X147.436Y-132.715
X155.056Y-132.715
X170.18Y-59.055
X170.18Y-68.58
X170.18Y-79.375
X170.18Y-90.17
X170.18Y-100.33
X170.18Y-109.855
X170.18Y-120.015
X170.815Y-130.175
T9
X96.52Y-107.54
X109.22Y-107.54
T10
X116.84Y-120.015
X119.38Y-120.015
X121.92Y-120.015
T11
X90.925Y-119.455
X105.925Y-125.655
T12
X82.031Y-55.83
X82.031Y-129.54
X209.031Y-55.83
X209.29Y-129.165
T0
M30
