%TF.GenerationSoftware,KiCad,Pcbnew,7.0.6*%
%TF.CreationDate,2024-11-05T16:19:31-08:00*%
%TF.ProjectId,LED-Driver,4c45442d-4472-4697-9665-722e6b696361,rev?*%
%TF.SameCoordinates,Original*%
%TF.FileFunction,Soldermask,Top*%
%TF.FilePolarity,Negative*%
%FSLAX46Y46*%
G04 Gerber Fmt 4.6, Leading zero omitted, Abs format (unit mm)*
G04 Created by KiCad (PCBNEW 7.0.6) date 2024-11-05 16:19:31*
%MOMM*%
%LPD*%
G01*
G04 APERTURE LIST*
G04 Aperture macros list*
%AMRoundRect*
0 Rectangle with rounded corners*
0 $1 Rounding radius*
0 $2 $3 $4 $5 $6 $7 $8 $9 X,Y pos of 4 corners*
0 Add a 4 corners polygon primitive as box body*
4,1,4,$2,$3,$4,$5,$6,$7,$8,$9,$2,$3,0*
0 Add four circle primitives for the rounded corners*
1,1,$1+$1,$2,$3*
1,1,$1+$1,$4,$5*
1,1,$1+$1,$6,$7*
1,1,$1+$1,$8,$9*
0 Add four rect primitives between the rounded corners*
20,1,$1+$1,$2,$3,$4,$5,0*
20,1,$1+$1,$4,$5,$6,$7,0*
20,1,$1+$1,$6,$7,$8,$9,0*
20,1,$1+$1,$8,$9,$2,$3,0*%
G04 Aperture macros list end*
%ADD10C,1.600000*%
%ADD11RoundRect,0.102000X-0.585000X-0.585000X0.585000X-0.585000X0.585000X0.585000X-0.585000X0.585000X0*%
%ADD12C,1.374000*%
%ADD13C,0.900000*%
%ADD14C,8.600000*%
%ADD15C,2.000000*%
%ADD16C,1.500000*%
%ADD17O,1.600000X1.600000*%
%ADD18RoundRect,0.102000X0.705000X-0.705000X0.705000X0.705000X-0.705000X0.705000X-0.705000X-0.705000X0*%
%ADD19C,1.614000*%
%ADD20C,2.307000*%
%ADD21R,1.524000X1.524000*%
%ADD22C,1.524000*%
%ADD23R,1.800000X1.800000*%
%ADD24C,1.800000*%
%ADD25R,2.000000X2.000000*%
%ADD26R,1.500000X1.500000*%
%ADD27R,1.600000X1.600000*%
G04 APERTURE END LIST*
D10*
%TO.C,C3*%
X134620000Y-58380000D03*
X134620000Y-53380000D03*
%TD*%
%TO.C,C2*%
X111125000Y-124420000D03*
X111125000Y-119420000D03*
%TD*%
D11*
%TO.C,U3*%
X142035800Y-110490000D03*
D12*
X142035800Y-113030000D03*
X142035800Y-115570000D03*
X142035800Y-118110000D03*
X142035800Y-120650000D03*
X142035800Y-123190000D03*
X142035800Y-125730000D03*
X149975800Y-125730000D03*
X149975800Y-123190000D03*
X149975800Y-120650000D03*
X149975800Y-118110000D03*
X149975800Y-115570000D03*
X149975800Y-113030000D03*
X149975800Y-110490000D03*
%TD*%
D10*
%TO.C,C4*%
X156845000Y-58975000D03*
X156845000Y-53975000D03*
%TD*%
D13*
%TO.C,H3*%
X78805800Y-129540000D03*
X79750381Y-127259581D03*
X79750381Y-131820419D03*
X82030800Y-126315000D03*
D14*
X82030800Y-129540000D03*
D13*
X82030800Y-132765000D03*
X84311219Y-127259581D03*
X84311219Y-131820419D03*
X85255800Y-129540000D03*
%TD*%
D15*
%TO.C,TP17*%
X81915000Y-71755000D03*
%TD*%
%TO.C,TP5*%
X136005800Y-107315000D03*
%TD*%
D16*
%TO.C,J1*%
X96520000Y-107540000D03*
X109220000Y-107540000D03*
%TD*%
D13*
%TO.C,H1*%
X78805800Y-55830000D03*
X79750381Y-53549581D03*
X79750381Y-58110419D03*
X82030800Y-52605000D03*
D14*
X82030800Y-55830000D03*
D13*
X82030800Y-59055000D03*
X84311219Y-53549581D03*
X84311219Y-58110419D03*
X85255800Y-55830000D03*
%TD*%
D15*
%TO.C,TP9*%
X170180000Y-59055000D03*
%TD*%
D10*
%TO.C,R12*%
X177165000Y-109855000D03*
D17*
X189865000Y-109855000D03*
%TD*%
D15*
%TO.C,TP16*%
X170815000Y-130175000D03*
%TD*%
D10*
%TO.C,R2*%
X132080000Y-70485000D03*
D17*
X144780000Y-70485000D03*
%TD*%
D10*
%TO.C,C1*%
X124460000Y-127040000D03*
X124460000Y-132040000D03*
%TD*%
%TO.C,R10*%
X177165000Y-90170000D03*
D17*
X189865000Y-90170000D03*
%TD*%
D15*
%TO.C,TP12*%
X170180000Y-90170000D03*
%TD*%
%TO.C,TP14*%
X170180000Y-109855000D03*
%TD*%
D18*
%TO.C,S1*%
X94425000Y-123655000D03*
D19*
X98425000Y-123655000D03*
X102425000Y-123655000D03*
D20*
X90925000Y-119455000D03*
X105925000Y-125655000D03*
%TD*%
D21*
%TO.C,U1*%
X116840000Y-120015000D03*
D22*
X119380000Y-120015000D03*
X121920000Y-120015000D03*
%TD*%
D23*
%TO.C,D1*%
X114295000Y-131445000D03*
D24*
X116835000Y-131445000D03*
%TD*%
D10*
%TO.C,R1*%
X104775000Y-132715000D03*
D17*
X92075000Y-132715000D03*
%TD*%
D25*
%TO.C,TP3*%
X82550000Y-111125000D03*
%TD*%
D13*
%TO.C,H4*%
X206065400Y-129164600D03*
X207009981Y-126884181D03*
X207009981Y-131445019D03*
X209290400Y-125939600D03*
D14*
X209290400Y-129164600D03*
D13*
X209290400Y-132389600D03*
X211570819Y-126884181D03*
X211570819Y-131445019D03*
X212515400Y-129164600D03*
%TD*%
D15*
%TO.C,TP15*%
X170180000Y-120015000D03*
%TD*%
D13*
%TO.C,H2*%
X205805800Y-55830000D03*
X206750381Y-53549581D03*
X206750381Y-58110419D03*
X209030800Y-52605000D03*
D14*
X209030800Y-55830000D03*
D13*
X209030800Y-59055000D03*
X211311219Y-53549581D03*
X211311219Y-58110419D03*
X212255800Y-55830000D03*
%TD*%
D23*
%TO.C,D2*%
X194940000Y-59055000D03*
D24*
X197480000Y-59055000D03*
%TD*%
D23*
%TO.C,D4*%
X194945000Y-79375000D03*
D24*
X197485000Y-79375000D03*
%TD*%
D26*
%TO.C,U4*%
X164465000Y-88265000D03*
D16*
X161925000Y-88265000D03*
X159385000Y-88265000D03*
X156845000Y-88265000D03*
X154305000Y-88265000D03*
X151765000Y-88265000D03*
X149225000Y-88265000D03*
X146685000Y-88265000D03*
X146685000Y-95885000D03*
X149225000Y-95885000D03*
X151765000Y-95885000D03*
X154305000Y-95885000D03*
X156845000Y-95885000D03*
X159385000Y-95885000D03*
X161925000Y-95885000D03*
X164465000Y-95885000D03*
%TD*%
D23*
%TO.C,D3*%
X194945000Y-69215000D03*
D24*
X197485000Y-69215000D03*
%TD*%
D10*
%TO.C,R9*%
X177165000Y-79375000D03*
D17*
X189865000Y-79375000D03*
%TD*%
D15*
%TO.C,TP13*%
X170180000Y-100330000D03*
%TD*%
D10*
%TO.C,C6*%
X155370800Y-109260000D03*
X155370800Y-114260000D03*
%TD*%
D23*
%TO.C,D5*%
X194945000Y-89535000D03*
D24*
X197485000Y-89535000D03*
%TD*%
D10*
%TO.C,C5*%
X154305000Y-63500000D03*
X159305000Y-63500000D03*
%TD*%
%TO.C,R8*%
X177165000Y-68580000D03*
D17*
X189865000Y-68580000D03*
%TD*%
D15*
%TO.C,TP10*%
X170180000Y-68580000D03*
%TD*%
D23*
%TO.C,D9*%
X194945000Y-130175000D03*
D24*
X197485000Y-130175000D03*
%TD*%
D15*
%TO.C,TP7*%
X147435800Y-132715000D03*
%TD*%
D10*
%TO.C,R4*%
X149225000Y-70485000D03*
D17*
X161925000Y-70485000D03*
%TD*%
D10*
%TO.C,R6*%
X136005800Y-125095000D03*
D17*
X136005800Y-112395000D03*
%TD*%
D15*
%TO.C,TP8*%
X155055800Y-132715000D03*
%TD*%
D10*
%TO.C,R14*%
X177165000Y-130175000D03*
D17*
X189865000Y-130175000D03*
%TD*%
D23*
%TO.C,D8*%
X194940000Y-120015000D03*
D24*
X197480000Y-120015000D03*
%TD*%
D25*
%TO.C,TP1*%
X82550000Y-118745000D03*
%TD*%
D27*
%TO.C,U2*%
X140950000Y-54620000D03*
D17*
X140950000Y-57160000D03*
X140950000Y-59700000D03*
X140950000Y-62240000D03*
X151110000Y-62240000D03*
X151110000Y-59700000D03*
X151110000Y-57160000D03*
X151110000Y-54620000D03*
%TD*%
D10*
%TO.C,C7*%
X140335000Y-93305000D03*
X140335000Y-88305000D03*
%TD*%
D15*
%TO.C,TP6*%
X139180800Y-132715000D03*
%TD*%
%TO.C,TP11*%
X170180000Y-79375000D03*
%TD*%
%TO.C,TP2*%
X128270000Y-120015000D03*
%TD*%
D10*
%TO.C,R7*%
X177165000Y-59055000D03*
D17*
X189865000Y-59055000D03*
%TD*%
D10*
%TO.C,R13*%
X177165000Y-120015000D03*
D17*
X189865000Y-120015000D03*
%TD*%
D10*
%TO.C,R11*%
X177165000Y-100330000D03*
D17*
X189865000Y-100330000D03*
%TD*%
D23*
%TO.C,D7*%
X194945000Y-109855000D03*
D24*
X197485000Y-109855000D03*
%TD*%
D10*
%TO.C,R3*%
X140970000Y-76835000D03*
D17*
X153670000Y-76835000D03*
%TD*%
D23*
%TO.C,D6*%
X194940000Y-99695000D03*
D24*
X197480000Y-99695000D03*
%TD*%
M02*
