%TF.GenerationSoftware,KiCad,Pcbnew,7.0.6*%
%TF.CreationDate,2024-11-05T16:19:31-08:00*%
%TF.ProjectId,LED-Driver,4c45442d-4472-4697-9665-722e6b696361,rev?*%
%TF.SameCoordinates,Original*%
%TF.FileFunction,Legend,Top*%
%TF.FilePolarity,Positive*%
%FSLAX46Y46*%
G04 Gerber Fmt 4.6, Leading zero omitted, Abs format (unit mm)*
G04 Created by KiCad (PCBNEW 7.0.6) date 2024-11-05 16:19:31*
%MOMM*%
%LPD*%
G01*
G04 APERTURE LIST*
G04 Aperture macros list*
%AMRoundRect*
0 Rectangle with rounded corners*
0 $1 Rounding radius*
0 $2 $3 $4 $5 $6 $7 $8 $9 X,Y pos of 4 corners*
0 Add a 4 corners polygon primitive as box body*
4,1,4,$2,$3,$4,$5,$6,$7,$8,$9,$2,$3,0*
0 Add four circle primitives for the rounded corners*
1,1,$1+$1,$2,$3*
1,1,$1+$1,$4,$5*
1,1,$1+$1,$6,$7*
1,1,$1+$1,$8,$9*
0 Add four rect primitives between the rounded corners*
20,1,$1+$1,$2,$3,$4,$5,0*
20,1,$1+$1,$4,$5,$6,$7,0*
20,1,$1+$1,$6,$7,$8,$9,0*
20,1,$1+$1,$8,$9,$2,$3,0*%
G04 Aperture macros list end*
%ADD10C,0.150000*%
%ADD11C,0.100000*%
%ADD12C,0.120000*%
%ADD13C,0.127000*%
%ADD14C,0.200000*%
%ADD15C,0.152400*%
%ADD16C,0.250000*%
%ADD17C,0.600000*%
%ADD18C,1.600000*%
%ADD19RoundRect,0.102000X-0.585000X-0.585000X0.585000X-0.585000X0.585000X0.585000X-0.585000X0.585000X0*%
%ADD20C,1.374000*%
%ADD21C,0.900000*%
%ADD22C,8.600000*%
%ADD23C,2.000000*%
%ADD24C,1.500000*%
%ADD25O,1.600000X1.600000*%
%ADD26RoundRect,0.102000X0.705000X-0.705000X0.705000X0.705000X-0.705000X0.705000X-0.705000X-0.705000X0*%
%ADD27C,1.614000*%
%ADD28C,2.307000*%
%ADD29R,1.524000X1.524000*%
%ADD30C,1.524000*%
%ADD31R,1.800000X1.800000*%
%ADD32C,1.800000*%
%ADD33R,2.000000X2.000000*%
%ADD34R,1.500000X1.500000*%
%ADD35R,1.600000X1.600000*%
G04 APERTURE END LIST*
D10*
X132479580Y-56046666D02*
X132527200Y-56094285D01*
X132527200Y-56094285D02*
X132574819Y-56237142D01*
X132574819Y-56237142D02*
X132574819Y-56332380D01*
X132574819Y-56332380D02*
X132527200Y-56475237D01*
X132527200Y-56475237D02*
X132431961Y-56570475D01*
X132431961Y-56570475D02*
X132336723Y-56618094D01*
X132336723Y-56618094D02*
X132146247Y-56665713D01*
X132146247Y-56665713D02*
X132003390Y-56665713D01*
X132003390Y-56665713D02*
X131812914Y-56618094D01*
X131812914Y-56618094D02*
X131717676Y-56570475D01*
X131717676Y-56570475D02*
X131622438Y-56475237D01*
X131622438Y-56475237D02*
X131574819Y-56332380D01*
X131574819Y-56332380D02*
X131574819Y-56237142D01*
X131574819Y-56237142D02*
X131622438Y-56094285D01*
X131622438Y-56094285D02*
X131670057Y-56046666D01*
X131574819Y-55713332D02*
X131574819Y-55094285D01*
X131574819Y-55094285D02*
X131955771Y-55427618D01*
X131955771Y-55427618D02*
X131955771Y-55284761D01*
X131955771Y-55284761D02*
X132003390Y-55189523D01*
X132003390Y-55189523D02*
X132051009Y-55141904D01*
X132051009Y-55141904D02*
X132146247Y-55094285D01*
X132146247Y-55094285D02*
X132384342Y-55094285D01*
X132384342Y-55094285D02*
X132479580Y-55141904D01*
X132479580Y-55141904D02*
X132527200Y-55189523D01*
X132527200Y-55189523D02*
X132574819Y-55284761D01*
X132574819Y-55284761D02*
X132574819Y-55570475D01*
X132574819Y-55570475D02*
X132527200Y-55665713D01*
X132527200Y-55665713D02*
X132479580Y-55713332D01*
X108984580Y-122086666D02*
X109032200Y-122134285D01*
X109032200Y-122134285D02*
X109079819Y-122277142D01*
X109079819Y-122277142D02*
X109079819Y-122372380D01*
X109079819Y-122372380D02*
X109032200Y-122515237D01*
X109032200Y-122515237D02*
X108936961Y-122610475D01*
X108936961Y-122610475D02*
X108841723Y-122658094D01*
X108841723Y-122658094D02*
X108651247Y-122705713D01*
X108651247Y-122705713D02*
X108508390Y-122705713D01*
X108508390Y-122705713D02*
X108317914Y-122658094D01*
X108317914Y-122658094D02*
X108222676Y-122610475D01*
X108222676Y-122610475D02*
X108127438Y-122515237D01*
X108127438Y-122515237D02*
X108079819Y-122372380D01*
X108079819Y-122372380D02*
X108079819Y-122277142D01*
X108079819Y-122277142D02*
X108127438Y-122134285D01*
X108127438Y-122134285D02*
X108175057Y-122086666D01*
X108175057Y-121705713D02*
X108127438Y-121658094D01*
X108127438Y-121658094D02*
X108079819Y-121562856D01*
X108079819Y-121562856D02*
X108079819Y-121324761D01*
X108079819Y-121324761D02*
X108127438Y-121229523D01*
X108127438Y-121229523D02*
X108175057Y-121181904D01*
X108175057Y-121181904D02*
X108270295Y-121134285D01*
X108270295Y-121134285D02*
X108365533Y-121134285D01*
X108365533Y-121134285D02*
X108508390Y-121181904D01*
X108508390Y-121181904D02*
X109079819Y-121753332D01*
X109079819Y-121753332D02*
X109079819Y-121134285D01*
X144418895Y-106429819D02*
X144418895Y-107239342D01*
X144418895Y-107239342D02*
X144466514Y-107334580D01*
X144466514Y-107334580D02*
X144514133Y-107382200D01*
X144514133Y-107382200D02*
X144609371Y-107429819D01*
X144609371Y-107429819D02*
X144799847Y-107429819D01*
X144799847Y-107429819D02*
X144895085Y-107382200D01*
X144895085Y-107382200D02*
X144942704Y-107334580D01*
X144942704Y-107334580D02*
X144990323Y-107239342D01*
X144990323Y-107239342D02*
X144990323Y-106429819D01*
X145371276Y-106429819D02*
X145990323Y-106429819D01*
X145990323Y-106429819D02*
X145656990Y-106810771D01*
X145656990Y-106810771D02*
X145799847Y-106810771D01*
X145799847Y-106810771D02*
X145895085Y-106858390D01*
X145895085Y-106858390D02*
X145942704Y-106906009D01*
X145942704Y-106906009D02*
X145990323Y-107001247D01*
X145990323Y-107001247D02*
X145990323Y-107239342D01*
X145990323Y-107239342D02*
X145942704Y-107334580D01*
X145942704Y-107334580D02*
X145895085Y-107382200D01*
X145895085Y-107382200D02*
X145799847Y-107429819D01*
X145799847Y-107429819D02*
X145514133Y-107429819D01*
X145514133Y-107429819D02*
X145418895Y-107382200D01*
X145418895Y-107382200D02*
X145371276Y-107334580D01*
X154704580Y-56641666D02*
X154752200Y-56689285D01*
X154752200Y-56689285D02*
X154799819Y-56832142D01*
X154799819Y-56832142D02*
X154799819Y-56927380D01*
X154799819Y-56927380D02*
X154752200Y-57070237D01*
X154752200Y-57070237D02*
X154656961Y-57165475D01*
X154656961Y-57165475D02*
X154561723Y-57213094D01*
X154561723Y-57213094D02*
X154371247Y-57260713D01*
X154371247Y-57260713D02*
X154228390Y-57260713D01*
X154228390Y-57260713D02*
X154037914Y-57213094D01*
X154037914Y-57213094D02*
X153942676Y-57165475D01*
X153942676Y-57165475D02*
X153847438Y-57070237D01*
X153847438Y-57070237D02*
X153799819Y-56927380D01*
X153799819Y-56927380D02*
X153799819Y-56832142D01*
X153799819Y-56832142D02*
X153847438Y-56689285D01*
X153847438Y-56689285D02*
X153895057Y-56641666D01*
X154133152Y-55784523D02*
X154799819Y-55784523D01*
X153752200Y-56022618D02*
X154466485Y-56260713D01*
X154466485Y-56260713D02*
X154466485Y-55641666D01*
X81268895Y-124694819D02*
X81268895Y-123694819D01*
X81268895Y-124171009D02*
X81840323Y-124171009D01*
X81840323Y-124694819D02*
X81840323Y-123694819D01*
X82221276Y-123694819D02*
X82840323Y-123694819D01*
X82840323Y-123694819D02*
X82506990Y-124075771D01*
X82506990Y-124075771D02*
X82649847Y-124075771D01*
X82649847Y-124075771D02*
X82745085Y-124123390D01*
X82745085Y-124123390D02*
X82792704Y-124171009D01*
X82792704Y-124171009D02*
X82840323Y-124266247D01*
X82840323Y-124266247D02*
X82840323Y-124504342D01*
X82840323Y-124504342D02*
X82792704Y-124599580D01*
X82792704Y-124599580D02*
X82745085Y-124647200D01*
X82745085Y-124647200D02*
X82649847Y-124694819D01*
X82649847Y-124694819D02*
X82364133Y-124694819D01*
X82364133Y-124694819D02*
X82268895Y-124647200D01*
X82268895Y-124647200D02*
X82221276Y-124599580D01*
X80176905Y-68709819D02*
X80748333Y-68709819D01*
X80462619Y-69709819D02*
X80462619Y-68709819D01*
X81081667Y-69709819D02*
X81081667Y-68709819D01*
X81081667Y-68709819D02*
X81462619Y-68709819D01*
X81462619Y-68709819D02*
X81557857Y-68757438D01*
X81557857Y-68757438D02*
X81605476Y-68805057D01*
X81605476Y-68805057D02*
X81653095Y-68900295D01*
X81653095Y-68900295D02*
X81653095Y-69043152D01*
X81653095Y-69043152D02*
X81605476Y-69138390D01*
X81605476Y-69138390D02*
X81557857Y-69186009D01*
X81557857Y-69186009D02*
X81462619Y-69233628D01*
X81462619Y-69233628D02*
X81081667Y-69233628D01*
X82605476Y-69709819D02*
X82034048Y-69709819D01*
X82319762Y-69709819D02*
X82319762Y-68709819D01*
X82319762Y-68709819D02*
X82224524Y-68852676D01*
X82224524Y-68852676D02*
X82129286Y-68947914D01*
X82129286Y-68947914D02*
X82034048Y-68995533D01*
X82938810Y-68709819D02*
X83605476Y-68709819D01*
X83605476Y-68709819D02*
X83176905Y-69709819D01*
X135443895Y-109269819D02*
X136015323Y-109269819D01*
X135729609Y-110269819D02*
X135729609Y-109269819D01*
X136348657Y-110269819D02*
X136348657Y-109269819D01*
X136348657Y-109269819D02*
X136729609Y-109269819D01*
X136729609Y-109269819D02*
X136824847Y-109317438D01*
X136824847Y-109317438D02*
X136872466Y-109365057D01*
X136872466Y-109365057D02*
X136920085Y-109460295D01*
X136920085Y-109460295D02*
X136920085Y-109603152D01*
X136920085Y-109603152D02*
X136872466Y-109698390D01*
X136872466Y-109698390D02*
X136824847Y-109746009D01*
X136824847Y-109746009D02*
X136729609Y-109793628D01*
X136729609Y-109793628D02*
X136348657Y-109793628D01*
X137824847Y-109269819D02*
X137348657Y-109269819D01*
X137348657Y-109269819D02*
X137301038Y-109746009D01*
X137301038Y-109746009D02*
X137348657Y-109698390D01*
X137348657Y-109698390D02*
X137443895Y-109650771D01*
X137443895Y-109650771D02*
X137681990Y-109650771D01*
X137681990Y-109650771D02*
X137777228Y-109698390D01*
X137777228Y-109698390D02*
X137824847Y-109746009D01*
X137824847Y-109746009D02*
X137872466Y-109841247D01*
X137872466Y-109841247D02*
X137872466Y-110079342D01*
X137872466Y-110079342D02*
X137824847Y-110174580D01*
X137824847Y-110174580D02*
X137777228Y-110222200D01*
X137777228Y-110222200D02*
X137681990Y-110269819D01*
X137681990Y-110269819D02*
X137443895Y-110269819D01*
X137443895Y-110269819D02*
X137348657Y-110222200D01*
X137348657Y-110222200D02*
X137301038Y-110174580D01*
D11*
X131016380Y-55951666D02*
X130302095Y-55951666D01*
X130302095Y-55951666D02*
X130159238Y-55904047D01*
X130159238Y-55904047D02*
X130064000Y-55808809D01*
X130064000Y-55808809D02*
X130016380Y-55665952D01*
X130016380Y-55665952D02*
X130016380Y-55570714D01*
X130016380Y-56951666D02*
X130016380Y-56380238D01*
X130016380Y-56665952D02*
X131016380Y-56665952D01*
X131016380Y-56665952D02*
X130873523Y-56570714D01*
X130873523Y-56570714D02*
X130778285Y-56475476D01*
X130778285Y-56475476D02*
X130730666Y-56380238D01*
X110108533Y-106143884D02*
X110108533Y-106905789D01*
X97458533Y-106263884D02*
X97458533Y-107025789D01*
X97077580Y-106644836D02*
X97839485Y-106644836D01*
D10*
X81268895Y-50984819D02*
X81268895Y-49984819D01*
X81268895Y-50461009D02*
X81840323Y-50461009D01*
X81840323Y-50984819D02*
X81840323Y-49984819D01*
X82840323Y-50984819D02*
X82268895Y-50984819D01*
X82554609Y-50984819D02*
X82554609Y-49984819D01*
X82554609Y-49984819D02*
X82459371Y-50127676D01*
X82459371Y-50127676D02*
X82364133Y-50222914D01*
X82364133Y-50222914D02*
X82268895Y-50270533D01*
X168918095Y-61009819D02*
X169489523Y-61009819D01*
X169203809Y-62009819D02*
X169203809Y-61009819D01*
X169822857Y-62009819D02*
X169822857Y-61009819D01*
X169822857Y-61009819D02*
X170203809Y-61009819D01*
X170203809Y-61009819D02*
X170299047Y-61057438D01*
X170299047Y-61057438D02*
X170346666Y-61105057D01*
X170346666Y-61105057D02*
X170394285Y-61200295D01*
X170394285Y-61200295D02*
X170394285Y-61343152D01*
X170394285Y-61343152D02*
X170346666Y-61438390D01*
X170346666Y-61438390D02*
X170299047Y-61486009D01*
X170299047Y-61486009D02*
X170203809Y-61533628D01*
X170203809Y-61533628D02*
X169822857Y-61533628D01*
X170870476Y-62009819D02*
X171060952Y-62009819D01*
X171060952Y-62009819D02*
X171156190Y-61962200D01*
X171156190Y-61962200D02*
X171203809Y-61914580D01*
X171203809Y-61914580D02*
X171299047Y-61771723D01*
X171299047Y-61771723D02*
X171346666Y-61581247D01*
X171346666Y-61581247D02*
X171346666Y-61200295D01*
X171346666Y-61200295D02*
X171299047Y-61105057D01*
X171299047Y-61105057D02*
X171251428Y-61057438D01*
X171251428Y-61057438D02*
X171156190Y-61009819D01*
X171156190Y-61009819D02*
X170965714Y-61009819D01*
X170965714Y-61009819D02*
X170870476Y-61057438D01*
X170870476Y-61057438D02*
X170822857Y-61105057D01*
X170822857Y-61105057D02*
X170775238Y-61200295D01*
X170775238Y-61200295D02*
X170775238Y-61438390D01*
X170775238Y-61438390D02*
X170822857Y-61533628D01*
X170822857Y-61533628D02*
X170870476Y-61581247D01*
X170870476Y-61581247D02*
X170965714Y-61628866D01*
X170965714Y-61628866D02*
X171156190Y-61628866D01*
X171156190Y-61628866D02*
X171251428Y-61581247D01*
X171251428Y-61581247D02*
X171299047Y-61533628D01*
X171299047Y-61533628D02*
X171346666Y-61438390D01*
X182872142Y-107589819D02*
X182538809Y-107113628D01*
X182300714Y-107589819D02*
X182300714Y-106589819D01*
X182300714Y-106589819D02*
X182681666Y-106589819D01*
X182681666Y-106589819D02*
X182776904Y-106637438D01*
X182776904Y-106637438D02*
X182824523Y-106685057D01*
X182824523Y-106685057D02*
X182872142Y-106780295D01*
X182872142Y-106780295D02*
X182872142Y-106923152D01*
X182872142Y-106923152D02*
X182824523Y-107018390D01*
X182824523Y-107018390D02*
X182776904Y-107066009D01*
X182776904Y-107066009D02*
X182681666Y-107113628D01*
X182681666Y-107113628D02*
X182300714Y-107113628D01*
X183824523Y-107589819D02*
X183253095Y-107589819D01*
X183538809Y-107589819D02*
X183538809Y-106589819D01*
X183538809Y-106589819D02*
X183443571Y-106732676D01*
X183443571Y-106732676D02*
X183348333Y-106827914D01*
X183348333Y-106827914D02*
X183253095Y-106875533D01*
X184205476Y-106685057D02*
X184253095Y-106637438D01*
X184253095Y-106637438D02*
X184348333Y-106589819D01*
X184348333Y-106589819D02*
X184586428Y-106589819D01*
X184586428Y-106589819D02*
X184681666Y-106637438D01*
X184681666Y-106637438D02*
X184729285Y-106685057D01*
X184729285Y-106685057D02*
X184776904Y-106780295D01*
X184776904Y-106780295D02*
X184776904Y-106875533D01*
X184776904Y-106875533D02*
X184729285Y-107018390D01*
X184729285Y-107018390D02*
X184157857Y-107589819D01*
X184157857Y-107589819D02*
X184776904Y-107589819D01*
X169076905Y-132169819D02*
X169648333Y-132169819D01*
X169362619Y-133169819D02*
X169362619Y-132169819D01*
X169981667Y-133169819D02*
X169981667Y-132169819D01*
X169981667Y-132169819D02*
X170362619Y-132169819D01*
X170362619Y-132169819D02*
X170457857Y-132217438D01*
X170457857Y-132217438D02*
X170505476Y-132265057D01*
X170505476Y-132265057D02*
X170553095Y-132360295D01*
X170553095Y-132360295D02*
X170553095Y-132503152D01*
X170553095Y-132503152D02*
X170505476Y-132598390D01*
X170505476Y-132598390D02*
X170457857Y-132646009D01*
X170457857Y-132646009D02*
X170362619Y-132693628D01*
X170362619Y-132693628D02*
X169981667Y-132693628D01*
X171505476Y-133169819D02*
X170934048Y-133169819D01*
X171219762Y-133169819D02*
X171219762Y-132169819D01*
X171219762Y-132169819D02*
X171124524Y-132312676D01*
X171124524Y-132312676D02*
X171029286Y-132407914D01*
X171029286Y-132407914D02*
X170934048Y-132455533D01*
X172362619Y-132169819D02*
X172172143Y-132169819D01*
X172172143Y-132169819D02*
X172076905Y-132217438D01*
X172076905Y-132217438D02*
X172029286Y-132265057D01*
X172029286Y-132265057D02*
X171934048Y-132407914D01*
X171934048Y-132407914D02*
X171886429Y-132598390D01*
X171886429Y-132598390D02*
X171886429Y-132979342D01*
X171886429Y-132979342D02*
X171934048Y-133074580D01*
X171934048Y-133074580D02*
X171981667Y-133122200D01*
X171981667Y-133122200D02*
X172076905Y-133169819D01*
X172076905Y-133169819D02*
X172267381Y-133169819D01*
X172267381Y-133169819D02*
X172362619Y-133122200D01*
X172362619Y-133122200D02*
X172410238Y-133074580D01*
X172410238Y-133074580D02*
X172457857Y-132979342D01*
X172457857Y-132979342D02*
X172457857Y-132741247D01*
X172457857Y-132741247D02*
X172410238Y-132646009D01*
X172410238Y-132646009D02*
X172362619Y-132598390D01*
X172362619Y-132598390D02*
X172267381Y-132550771D01*
X172267381Y-132550771D02*
X172076905Y-132550771D01*
X172076905Y-132550771D02*
X171981667Y-132598390D01*
X171981667Y-132598390D02*
X171934048Y-132646009D01*
X171934048Y-132646009D02*
X171886429Y-132741247D01*
X138263333Y-68219819D02*
X137930000Y-67743628D01*
X137691905Y-68219819D02*
X137691905Y-67219819D01*
X137691905Y-67219819D02*
X138072857Y-67219819D01*
X138072857Y-67219819D02*
X138168095Y-67267438D01*
X138168095Y-67267438D02*
X138215714Y-67315057D01*
X138215714Y-67315057D02*
X138263333Y-67410295D01*
X138263333Y-67410295D02*
X138263333Y-67553152D01*
X138263333Y-67553152D02*
X138215714Y-67648390D01*
X138215714Y-67648390D02*
X138168095Y-67696009D01*
X138168095Y-67696009D02*
X138072857Y-67743628D01*
X138072857Y-67743628D02*
X137691905Y-67743628D01*
X138644286Y-67315057D02*
X138691905Y-67267438D01*
X138691905Y-67267438D02*
X138787143Y-67219819D01*
X138787143Y-67219819D02*
X139025238Y-67219819D01*
X139025238Y-67219819D02*
X139120476Y-67267438D01*
X139120476Y-67267438D02*
X139168095Y-67315057D01*
X139168095Y-67315057D02*
X139215714Y-67410295D01*
X139215714Y-67410295D02*
X139215714Y-67505533D01*
X139215714Y-67505533D02*
X139168095Y-67648390D01*
X139168095Y-67648390D02*
X138596667Y-68219819D01*
X138596667Y-68219819D02*
X139215714Y-68219819D01*
X127319580Y-129706666D02*
X127367200Y-129754285D01*
X127367200Y-129754285D02*
X127414819Y-129897142D01*
X127414819Y-129897142D02*
X127414819Y-129992380D01*
X127414819Y-129992380D02*
X127367200Y-130135237D01*
X127367200Y-130135237D02*
X127271961Y-130230475D01*
X127271961Y-130230475D02*
X127176723Y-130278094D01*
X127176723Y-130278094D02*
X126986247Y-130325713D01*
X126986247Y-130325713D02*
X126843390Y-130325713D01*
X126843390Y-130325713D02*
X126652914Y-130278094D01*
X126652914Y-130278094D02*
X126557676Y-130230475D01*
X126557676Y-130230475D02*
X126462438Y-130135237D01*
X126462438Y-130135237D02*
X126414819Y-129992380D01*
X126414819Y-129992380D02*
X126414819Y-129897142D01*
X126414819Y-129897142D02*
X126462438Y-129754285D01*
X126462438Y-129754285D02*
X126510057Y-129706666D01*
X127414819Y-128754285D02*
X127414819Y-129325713D01*
X127414819Y-129039999D02*
X126414819Y-129039999D01*
X126414819Y-129039999D02*
X126557676Y-129135237D01*
X126557676Y-129135237D02*
X126652914Y-129230475D01*
X126652914Y-129230475D02*
X126700533Y-129325713D01*
X182872142Y-87904819D02*
X182538809Y-87428628D01*
X182300714Y-87904819D02*
X182300714Y-86904819D01*
X182300714Y-86904819D02*
X182681666Y-86904819D01*
X182681666Y-86904819D02*
X182776904Y-86952438D01*
X182776904Y-86952438D02*
X182824523Y-87000057D01*
X182824523Y-87000057D02*
X182872142Y-87095295D01*
X182872142Y-87095295D02*
X182872142Y-87238152D01*
X182872142Y-87238152D02*
X182824523Y-87333390D01*
X182824523Y-87333390D02*
X182776904Y-87381009D01*
X182776904Y-87381009D02*
X182681666Y-87428628D01*
X182681666Y-87428628D02*
X182300714Y-87428628D01*
X183824523Y-87904819D02*
X183253095Y-87904819D01*
X183538809Y-87904819D02*
X183538809Y-86904819D01*
X183538809Y-86904819D02*
X183443571Y-87047676D01*
X183443571Y-87047676D02*
X183348333Y-87142914D01*
X183348333Y-87142914D02*
X183253095Y-87190533D01*
X184443571Y-86904819D02*
X184538809Y-86904819D01*
X184538809Y-86904819D02*
X184634047Y-86952438D01*
X184634047Y-86952438D02*
X184681666Y-87000057D01*
X184681666Y-87000057D02*
X184729285Y-87095295D01*
X184729285Y-87095295D02*
X184776904Y-87285771D01*
X184776904Y-87285771D02*
X184776904Y-87523866D01*
X184776904Y-87523866D02*
X184729285Y-87714342D01*
X184729285Y-87714342D02*
X184681666Y-87809580D01*
X184681666Y-87809580D02*
X184634047Y-87857200D01*
X184634047Y-87857200D02*
X184538809Y-87904819D01*
X184538809Y-87904819D02*
X184443571Y-87904819D01*
X184443571Y-87904819D02*
X184348333Y-87857200D01*
X184348333Y-87857200D02*
X184300714Y-87809580D01*
X184300714Y-87809580D02*
X184253095Y-87714342D01*
X184253095Y-87714342D02*
X184205476Y-87523866D01*
X184205476Y-87523866D02*
X184205476Y-87285771D01*
X184205476Y-87285771D02*
X184253095Y-87095295D01*
X184253095Y-87095295D02*
X184300714Y-87000057D01*
X184300714Y-87000057D02*
X184348333Y-86952438D01*
X184348333Y-86952438D02*
X184443571Y-86904819D01*
X168441905Y-92164819D02*
X169013333Y-92164819D01*
X168727619Y-93164819D02*
X168727619Y-92164819D01*
X169346667Y-93164819D02*
X169346667Y-92164819D01*
X169346667Y-92164819D02*
X169727619Y-92164819D01*
X169727619Y-92164819D02*
X169822857Y-92212438D01*
X169822857Y-92212438D02*
X169870476Y-92260057D01*
X169870476Y-92260057D02*
X169918095Y-92355295D01*
X169918095Y-92355295D02*
X169918095Y-92498152D01*
X169918095Y-92498152D02*
X169870476Y-92593390D01*
X169870476Y-92593390D02*
X169822857Y-92641009D01*
X169822857Y-92641009D02*
X169727619Y-92688628D01*
X169727619Y-92688628D02*
X169346667Y-92688628D01*
X170870476Y-93164819D02*
X170299048Y-93164819D01*
X170584762Y-93164819D02*
X170584762Y-92164819D01*
X170584762Y-92164819D02*
X170489524Y-92307676D01*
X170489524Y-92307676D02*
X170394286Y-92402914D01*
X170394286Y-92402914D02*
X170299048Y-92450533D01*
X171251429Y-92260057D02*
X171299048Y-92212438D01*
X171299048Y-92212438D02*
X171394286Y-92164819D01*
X171394286Y-92164819D02*
X171632381Y-92164819D01*
X171632381Y-92164819D02*
X171727619Y-92212438D01*
X171727619Y-92212438D02*
X171775238Y-92260057D01*
X171775238Y-92260057D02*
X171822857Y-92355295D01*
X171822857Y-92355295D02*
X171822857Y-92450533D01*
X171822857Y-92450533D02*
X171775238Y-92593390D01*
X171775238Y-92593390D02*
X171203810Y-93164819D01*
X171203810Y-93164819D02*
X171822857Y-93164819D01*
X168441905Y-111849819D02*
X169013333Y-111849819D01*
X168727619Y-112849819D02*
X168727619Y-111849819D01*
X169346667Y-112849819D02*
X169346667Y-111849819D01*
X169346667Y-111849819D02*
X169727619Y-111849819D01*
X169727619Y-111849819D02*
X169822857Y-111897438D01*
X169822857Y-111897438D02*
X169870476Y-111945057D01*
X169870476Y-111945057D02*
X169918095Y-112040295D01*
X169918095Y-112040295D02*
X169918095Y-112183152D01*
X169918095Y-112183152D02*
X169870476Y-112278390D01*
X169870476Y-112278390D02*
X169822857Y-112326009D01*
X169822857Y-112326009D02*
X169727619Y-112373628D01*
X169727619Y-112373628D02*
X169346667Y-112373628D01*
X170870476Y-112849819D02*
X170299048Y-112849819D01*
X170584762Y-112849819D02*
X170584762Y-111849819D01*
X170584762Y-111849819D02*
X170489524Y-111992676D01*
X170489524Y-111992676D02*
X170394286Y-112087914D01*
X170394286Y-112087914D02*
X170299048Y-112135533D01*
X171727619Y-112183152D02*
X171727619Y-112849819D01*
X171489524Y-111802200D02*
X171251429Y-112516485D01*
X171251429Y-112516485D02*
X171870476Y-112516485D01*
X89197200Y-123641904D02*
X89244819Y-123499047D01*
X89244819Y-123499047D02*
X89244819Y-123260952D01*
X89244819Y-123260952D02*
X89197200Y-123165714D01*
X89197200Y-123165714D02*
X89149580Y-123118095D01*
X89149580Y-123118095D02*
X89054342Y-123070476D01*
X89054342Y-123070476D02*
X88959104Y-123070476D01*
X88959104Y-123070476D02*
X88863866Y-123118095D01*
X88863866Y-123118095D02*
X88816247Y-123165714D01*
X88816247Y-123165714D02*
X88768628Y-123260952D01*
X88768628Y-123260952D02*
X88721009Y-123451428D01*
X88721009Y-123451428D02*
X88673390Y-123546666D01*
X88673390Y-123546666D02*
X88625771Y-123594285D01*
X88625771Y-123594285D02*
X88530533Y-123641904D01*
X88530533Y-123641904D02*
X88435295Y-123641904D01*
X88435295Y-123641904D02*
X88340057Y-123594285D01*
X88340057Y-123594285D02*
X88292438Y-123546666D01*
X88292438Y-123546666D02*
X88244819Y-123451428D01*
X88244819Y-123451428D02*
X88244819Y-123213333D01*
X88244819Y-123213333D02*
X88292438Y-123070476D01*
X89244819Y-122118095D02*
X89244819Y-122689523D01*
X89244819Y-122403809D02*
X88244819Y-122403809D01*
X88244819Y-122403809D02*
X88387676Y-122499047D01*
X88387676Y-122499047D02*
X88482914Y-122594285D01*
X88482914Y-122594285D02*
X88530533Y-122689523D01*
X121158095Y-116929819D02*
X121158095Y-117739342D01*
X121158095Y-117739342D02*
X121205714Y-117834580D01*
X121205714Y-117834580D02*
X121253333Y-117882200D01*
X121253333Y-117882200D02*
X121348571Y-117929819D01*
X121348571Y-117929819D02*
X121539047Y-117929819D01*
X121539047Y-117929819D02*
X121634285Y-117882200D01*
X121634285Y-117882200D02*
X121681904Y-117834580D01*
X121681904Y-117834580D02*
X121729523Y-117739342D01*
X121729523Y-117739342D02*
X121729523Y-116929819D01*
X122729523Y-117929819D02*
X122158095Y-117929819D01*
X122443809Y-117929819D02*
X122443809Y-116929819D01*
X122443809Y-116929819D02*
X122348571Y-117072676D01*
X122348571Y-117072676D02*
X122253333Y-117167914D01*
X122253333Y-117167914D02*
X122158095Y-117215533D01*
X114826905Y-127939819D02*
X114826905Y-126939819D01*
X114826905Y-126939819D02*
X115065000Y-126939819D01*
X115065000Y-126939819D02*
X115207857Y-126987438D01*
X115207857Y-126987438D02*
X115303095Y-127082676D01*
X115303095Y-127082676D02*
X115350714Y-127177914D01*
X115350714Y-127177914D02*
X115398333Y-127368390D01*
X115398333Y-127368390D02*
X115398333Y-127511247D01*
X115398333Y-127511247D02*
X115350714Y-127701723D01*
X115350714Y-127701723D02*
X115303095Y-127796961D01*
X115303095Y-127796961D02*
X115207857Y-127892200D01*
X115207857Y-127892200D02*
X115065000Y-127939819D01*
X115065000Y-127939819D02*
X114826905Y-127939819D01*
X116350714Y-127939819D02*
X115779286Y-127939819D01*
X116065000Y-127939819D02*
X116065000Y-126939819D01*
X116065000Y-126939819D02*
X115969762Y-127082676D01*
X115969762Y-127082676D02*
X115874524Y-127177914D01*
X115874524Y-127177914D02*
X115779286Y-127225533D01*
X98258333Y-135889819D02*
X97925000Y-135413628D01*
X97686905Y-135889819D02*
X97686905Y-134889819D01*
X97686905Y-134889819D02*
X98067857Y-134889819D01*
X98067857Y-134889819D02*
X98163095Y-134937438D01*
X98163095Y-134937438D02*
X98210714Y-134985057D01*
X98210714Y-134985057D02*
X98258333Y-135080295D01*
X98258333Y-135080295D02*
X98258333Y-135223152D01*
X98258333Y-135223152D02*
X98210714Y-135318390D01*
X98210714Y-135318390D02*
X98163095Y-135366009D01*
X98163095Y-135366009D02*
X98067857Y-135413628D01*
X98067857Y-135413628D02*
X97686905Y-135413628D01*
X99210714Y-135889819D02*
X98639286Y-135889819D01*
X98925000Y-135889819D02*
X98925000Y-134889819D01*
X98925000Y-134889819D02*
X98829762Y-135032676D01*
X98829762Y-135032676D02*
X98734524Y-135127914D01*
X98734524Y-135127914D02*
X98639286Y-135175533D01*
X81288095Y-113119819D02*
X81859523Y-113119819D01*
X81573809Y-114119819D02*
X81573809Y-113119819D01*
X82192857Y-114119819D02*
X82192857Y-113119819D01*
X82192857Y-113119819D02*
X82573809Y-113119819D01*
X82573809Y-113119819D02*
X82669047Y-113167438D01*
X82669047Y-113167438D02*
X82716666Y-113215057D01*
X82716666Y-113215057D02*
X82764285Y-113310295D01*
X82764285Y-113310295D02*
X82764285Y-113453152D01*
X82764285Y-113453152D02*
X82716666Y-113548390D01*
X82716666Y-113548390D02*
X82669047Y-113596009D01*
X82669047Y-113596009D02*
X82573809Y-113643628D01*
X82573809Y-113643628D02*
X82192857Y-113643628D01*
X83097619Y-113119819D02*
X83716666Y-113119819D01*
X83716666Y-113119819D02*
X83383333Y-113500771D01*
X83383333Y-113500771D02*
X83526190Y-113500771D01*
X83526190Y-113500771D02*
X83621428Y-113548390D01*
X83621428Y-113548390D02*
X83669047Y-113596009D01*
X83669047Y-113596009D02*
X83716666Y-113691247D01*
X83716666Y-113691247D02*
X83716666Y-113929342D01*
X83716666Y-113929342D02*
X83669047Y-114024580D01*
X83669047Y-114024580D02*
X83621428Y-114072200D01*
X83621428Y-114072200D02*
X83526190Y-114119819D01*
X83526190Y-114119819D02*
X83240476Y-114119819D01*
X83240476Y-114119819D02*
X83145238Y-114072200D01*
X83145238Y-114072200D02*
X83097619Y-114024580D01*
X208528495Y-124319419D02*
X208528495Y-123319419D01*
X208528495Y-123795609D02*
X209099923Y-123795609D01*
X209099923Y-124319419D02*
X209099923Y-123319419D01*
X210004685Y-123652752D02*
X210004685Y-124319419D01*
X209766590Y-123271800D02*
X209528495Y-123986085D01*
X209528495Y-123986085D02*
X210147542Y-123986085D01*
X168441905Y-122009819D02*
X169013333Y-122009819D01*
X168727619Y-123009819D02*
X168727619Y-122009819D01*
X169346667Y-123009819D02*
X169346667Y-122009819D01*
X169346667Y-122009819D02*
X169727619Y-122009819D01*
X169727619Y-122009819D02*
X169822857Y-122057438D01*
X169822857Y-122057438D02*
X169870476Y-122105057D01*
X169870476Y-122105057D02*
X169918095Y-122200295D01*
X169918095Y-122200295D02*
X169918095Y-122343152D01*
X169918095Y-122343152D02*
X169870476Y-122438390D01*
X169870476Y-122438390D02*
X169822857Y-122486009D01*
X169822857Y-122486009D02*
X169727619Y-122533628D01*
X169727619Y-122533628D02*
X169346667Y-122533628D01*
X170870476Y-123009819D02*
X170299048Y-123009819D01*
X170584762Y-123009819D02*
X170584762Y-122009819D01*
X170584762Y-122009819D02*
X170489524Y-122152676D01*
X170489524Y-122152676D02*
X170394286Y-122247914D01*
X170394286Y-122247914D02*
X170299048Y-122295533D01*
X171775238Y-122009819D02*
X171299048Y-122009819D01*
X171299048Y-122009819D02*
X171251429Y-122486009D01*
X171251429Y-122486009D02*
X171299048Y-122438390D01*
X171299048Y-122438390D02*
X171394286Y-122390771D01*
X171394286Y-122390771D02*
X171632381Y-122390771D01*
X171632381Y-122390771D02*
X171727619Y-122438390D01*
X171727619Y-122438390D02*
X171775238Y-122486009D01*
X171775238Y-122486009D02*
X171822857Y-122581247D01*
X171822857Y-122581247D02*
X171822857Y-122819342D01*
X171822857Y-122819342D02*
X171775238Y-122914580D01*
X171775238Y-122914580D02*
X171727619Y-122962200D01*
X171727619Y-122962200D02*
X171632381Y-123009819D01*
X171632381Y-123009819D02*
X171394286Y-123009819D01*
X171394286Y-123009819D02*
X171299048Y-122962200D01*
X171299048Y-122962200D02*
X171251429Y-122914580D01*
X208268895Y-50984819D02*
X208268895Y-49984819D01*
X208268895Y-50461009D02*
X208840323Y-50461009D01*
X208840323Y-50984819D02*
X208840323Y-49984819D01*
X209268895Y-50080057D02*
X209316514Y-50032438D01*
X209316514Y-50032438D02*
X209411752Y-49984819D01*
X209411752Y-49984819D02*
X209649847Y-49984819D01*
X209649847Y-49984819D02*
X209745085Y-50032438D01*
X209745085Y-50032438D02*
X209792704Y-50080057D01*
X209792704Y-50080057D02*
X209840323Y-50175295D01*
X209840323Y-50175295D02*
X209840323Y-50270533D01*
X209840323Y-50270533D02*
X209792704Y-50413390D01*
X209792704Y-50413390D02*
X209221276Y-50984819D01*
X209221276Y-50984819D02*
X209840323Y-50984819D01*
X195471905Y-55549819D02*
X195471905Y-54549819D01*
X195471905Y-54549819D02*
X195710000Y-54549819D01*
X195710000Y-54549819D02*
X195852857Y-54597438D01*
X195852857Y-54597438D02*
X195948095Y-54692676D01*
X195948095Y-54692676D02*
X195995714Y-54787914D01*
X195995714Y-54787914D02*
X196043333Y-54978390D01*
X196043333Y-54978390D02*
X196043333Y-55121247D01*
X196043333Y-55121247D02*
X195995714Y-55311723D01*
X195995714Y-55311723D02*
X195948095Y-55406961D01*
X195948095Y-55406961D02*
X195852857Y-55502200D01*
X195852857Y-55502200D02*
X195710000Y-55549819D01*
X195710000Y-55549819D02*
X195471905Y-55549819D01*
X196424286Y-54645057D02*
X196471905Y-54597438D01*
X196471905Y-54597438D02*
X196567143Y-54549819D01*
X196567143Y-54549819D02*
X196805238Y-54549819D01*
X196805238Y-54549819D02*
X196900476Y-54597438D01*
X196900476Y-54597438D02*
X196948095Y-54645057D01*
X196948095Y-54645057D02*
X196995714Y-54740295D01*
X196995714Y-54740295D02*
X196995714Y-54835533D01*
X196995714Y-54835533D02*
X196948095Y-54978390D01*
X196948095Y-54978390D02*
X196376667Y-55549819D01*
X196376667Y-55549819D02*
X196995714Y-55549819D01*
X195476905Y-75869819D02*
X195476905Y-74869819D01*
X195476905Y-74869819D02*
X195715000Y-74869819D01*
X195715000Y-74869819D02*
X195857857Y-74917438D01*
X195857857Y-74917438D02*
X195953095Y-75012676D01*
X195953095Y-75012676D02*
X196000714Y-75107914D01*
X196000714Y-75107914D02*
X196048333Y-75298390D01*
X196048333Y-75298390D02*
X196048333Y-75441247D01*
X196048333Y-75441247D02*
X196000714Y-75631723D01*
X196000714Y-75631723D02*
X195953095Y-75726961D01*
X195953095Y-75726961D02*
X195857857Y-75822200D01*
X195857857Y-75822200D02*
X195715000Y-75869819D01*
X195715000Y-75869819D02*
X195476905Y-75869819D01*
X196905476Y-75203152D02*
X196905476Y-75869819D01*
X196667381Y-74822200D02*
X196429286Y-75536485D01*
X196429286Y-75536485D02*
X197048333Y-75536485D01*
X167480180Y-88063095D02*
X166670657Y-88063095D01*
X166670657Y-88063095D02*
X166575419Y-88110714D01*
X166575419Y-88110714D02*
X166527800Y-88158333D01*
X166527800Y-88158333D02*
X166480180Y-88253571D01*
X166480180Y-88253571D02*
X166480180Y-88444047D01*
X166480180Y-88444047D02*
X166527800Y-88539285D01*
X166527800Y-88539285D02*
X166575419Y-88586904D01*
X166575419Y-88586904D02*
X166670657Y-88634523D01*
X166670657Y-88634523D02*
X167480180Y-88634523D01*
X167146847Y-89539285D02*
X166480180Y-89539285D01*
X167527800Y-89301190D02*
X166813514Y-89063095D01*
X166813514Y-89063095D02*
X166813514Y-89682142D01*
X195476905Y-65709819D02*
X195476905Y-64709819D01*
X195476905Y-64709819D02*
X195715000Y-64709819D01*
X195715000Y-64709819D02*
X195857857Y-64757438D01*
X195857857Y-64757438D02*
X195953095Y-64852676D01*
X195953095Y-64852676D02*
X196000714Y-64947914D01*
X196000714Y-64947914D02*
X196048333Y-65138390D01*
X196048333Y-65138390D02*
X196048333Y-65281247D01*
X196048333Y-65281247D02*
X196000714Y-65471723D01*
X196000714Y-65471723D02*
X195953095Y-65566961D01*
X195953095Y-65566961D02*
X195857857Y-65662200D01*
X195857857Y-65662200D02*
X195715000Y-65709819D01*
X195715000Y-65709819D02*
X195476905Y-65709819D01*
X196381667Y-64709819D02*
X197000714Y-64709819D01*
X197000714Y-64709819D02*
X196667381Y-65090771D01*
X196667381Y-65090771D02*
X196810238Y-65090771D01*
X196810238Y-65090771D02*
X196905476Y-65138390D01*
X196905476Y-65138390D02*
X196953095Y-65186009D01*
X196953095Y-65186009D02*
X197000714Y-65281247D01*
X197000714Y-65281247D02*
X197000714Y-65519342D01*
X197000714Y-65519342D02*
X196953095Y-65614580D01*
X196953095Y-65614580D02*
X196905476Y-65662200D01*
X196905476Y-65662200D02*
X196810238Y-65709819D01*
X196810238Y-65709819D02*
X196524524Y-65709819D01*
X196524524Y-65709819D02*
X196429286Y-65662200D01*
X196429286Y-65662200D02*
X196381667Y-65614580D01*
X183348333Y-77109819D02*
X183015000Y-76633628D01*
X182776905Y-77109819D02*
X182776905Y-76109819D01*
X182776905Y-76109819D02*
X183157857Y-76109819D01*
X183157857Y-76109819D02*
X183253095Y-76157438D01*
X183253095Y-76157438D02*
X183300714Y-76205057D01*
X183300714Y-76205057D02*
X183348333Y-76300295D01*
X183348333Y-76300295D02*
X183348333Y-76443152D01*
X183348333Y-76443152D02*
X183300714Y-76538390D01*
X183300714Y-76538390D02*
X183253095Y-76586009D01*
X183253095Y-76586009D02*
X183157857Y-76633628D01*
X183157857Y-76633628D02*
X182776905Y-76633628D01*
X183824524Y-77109819D02*
X184015000Y-77109819D01*
X184015000Y-77109819D02*
X184110238Y-77062200D01*
X184110238Y-77062200D02*
X184157857Y-77014580D01*
X184157857Y-77014580D02*
X184253095Y-76871723D01*
X184253095Y-76871723D02*
X184300714Y-76681247D01*
X184300714Y-76681247D02*
X184300714Y-76300295D01*
X184300714Y-76300295D02*
X184253095Y-76205057D01*
X184253095Y-76205057D02*
X184205476Y-76157438D01*
X184205476Y-76157438D02*
X184110238Y-76109819D01*
X184110238Y-76109819D02*
X183919762Y-76109819D01*
X183919762Y-76109819D02*
X183824524Y-76157438D01*
X183824524Y-76157438D02*
X183776905Y-76205057D01*
X183776905Y-76205057D02*
X183729286Y-76300295D01*
X183729286Y-76300295D02*
X183729286Y-76538390D01*
X183729286Y-76538390D02*
X183776905Y-76633628D01*
X183776905Y-76633628D02*
X183824524Y-76681247D01*
X183824524Y-76681247D02*
X183919762Y-76728866D01*
X183919762Y-76728866D02*
X184110238Y-76728866D01*
X184110238Y-76728866D02*
X184205476Y-76681247D01*
X184205476Y-76681247D02*
X184253095Y-76633628D01*
X184253095Y-76633628D02*
X184300714Y-76538390D01*
X168441905Y-102324819D02*
X169013333Y-102324819D01*
X168727619Y-103324819D02*
X168727619Y-102324819D01*
X169346667Y-103324819D02*
X169346667Y-102324819D01*
X169346667Y-102324819D02*
X169727619Y-102324819D01*
X169727619Y-102324819D02*
X169822857Y-102372438D01*
X169822857Y-102372438D02*
X169870476Y-102420057D01*
X169870476Y-102420057D02*
X169918095Y-102515295D01*
X169918095Y-102515295D02*
X169918095Y-102658152D01*
X169918095Y-102658152D02*
X169870476Y-102753390D01*
X169870476Y-102753390D02*
X169822857Y-102801009D01*
X169822857Y-102801009D02*
X169727619Y-102848628D01*
X169727619Y-102848628D02*
X169346667Y-102848628D01*
X170870476Y-103324819D02*
X170299048Y-103324819D01*
X170584762Y-103324819D02*
X170584762Y-102324819D01*
X170584762Y-102324819D02*
X170489524Y-102467676D01*
X170489524Y-102467676D02*
X170394286Y-102562914D01*
X170394286Y-102562914D02*
X170299048Y-102610533D01*
X171203810Y-102324819D02*
X171822857Y-102324819D01*
X171822857Y-102324819D02*
X171489524Y-102705771D01*
X171489524Y-102705771D02*
X171632381Y-102705771D01*
X171632381Y-102705771D02*
X171727619Y-102753390D01*
X171727619Y-102753390D02*
X171775238Y-102801009D01*
X171775238Y-102801009D02*
X171822857Y-102896247D01*
X171822857Y-102896247D02*
X171822857Y-103134342D01*
X171822857Y-103134342D02*
X171775238Y-103229580D01*
X171775238Y-103229580D02*
X171727619Y-103277200D01*
X171727619Y-103277200D02*
X171632381Y-103324819D01*
X171632381Y-103324819D02*
X171346667Y-103324819D01*
X171346667Y-103324819D02*
X171251429Y-103277200D01*
X171251429Y-103277200D02*
X171203810Y-103229580D01*
X158230380Y-111926666D02*
X158278000Y-111974285D01*
X158278000Y-111974285D02*
X158325619Y-112117142D01*
X158325619Y-112117142D02*
X158325619Y-112212380D01*
X158325619Y-112212380D02*
X158278000Y-112355237D01*
X158278000Y-112355237D02*
X158182761Y-112450475D01*
X158182761Y-112450475D02*
X158087523Y-112498094D01*
X158087523Y-112498094D02*
X157897047Y-112545713D01*
X157897047Y-112545713D02*
X157754190Y-112545713D01*
X157754190Y-112545713D02*
X157563714Y-112498094D01*
X157563714Y-112498094D02*
X157468476Y-112450475D01*
X157468476Y-112450475D02*
X157373238Y-112355237D01*
X157373238Y-112355237D02*
X157325619Y-112212380D01*
X157325619Y-112212380D02*
X157325619Y-112117142D01*
X157325619Y-112117142D02*
X157373238Y-111974285D01*
X157373238Y-111974285D02*
X157420857Y-111926666D01*
X157325619Y-111069523D02*
X157325619Y-111259999D01*
X157325619Y-111259999D02*
X157373238Y-111355237D01*
X157373238Y-111355237D02*
X157420857Y-111402856D01*
X157420857Y-111402856D02*
X157563714Y-111498094D01*
X157563714Y-111498094D02*
X157754190Y-111545713D01*
X157754190Y-111545713D02*
X158135142Y-111545713D01*
X158135142Y-111545713D02*
X158230380Y-111498094D01*
X158230380Y-111498094D02*
X158278000Y-111450475D01*
X158278000Y-111450475D02*
X158325619Y-111355237D01*
X158325619Y-111355237D02*
X158325619Y-111164761D01*
X158325619Y-111164761D02*
X158278000Y-111069523D01*
X158278000Y-111069523D02*
X158230380Y-111021904D01*
X158230380Y-111021904D02*
X158135142Y-110974285D01*
X158135142Y-110974285D02*
X157897047Y-110974285D01*
X157897047Y-110974285D02*
X157801809Y-111021904D01*
X157801809Y-111021904D02*
X157754190Y-111069523D01*
X157754190Y-111069523D02*
X157706571Y-111164761D01*
X157706571Y-111164761D02*
X157706571Y-111355237D01*
X157706571Y-111355237D02*
X157754190Y-111450475D01*
X157754190Y-111450475D02*
X157801809Y-111498094D01*
X157801809Y-111498094D02*
X157897047Y-111545713D01*
X195476905Y-86029819D02*
X195476905Y-85029819D01*
X195476905Y-85029819D02*
X195715000Y-85029819D01*
X195715000Y-85029819D02*
X195857857Y-85077438D01*
X195857857Y-85077438D02*
X195953095Y-85172676D01*
X195953095Y-85172676D02*
X196000714Y-85267914D01*
X196000714Y-85267914D02*
X196048333Y-85458390D01*
X196048333Y-85458390D02*
X196048333Y-85601247D01*
X196048333Y-85601247D02*
X196000714Y-85791723D01*
X196000714Y-85791723D02*
X195953095Y-85886961D01*
X195953095Y-85886961D02*
X195857857Y-85982200D01*
X195857857Y-85982200D02*
X195715000Y-86029819D01*
X195715000Y-86029819D02*
X195476905Y-86029819D01*
X196953095Y-85029819D02*
X196476905Y-85029819D01*
X196476905Y-85029819D02*
X196429286Y-85506009D01*
X196429286Y-85506009D02*
X196476905Y-85458390D01*
X196476905Y-85458390D02*
X196572143Y-85410771D01*
X196572143Y-85410771D02*
X196810238Y-85410771D01*
X196810238Y-85410771D02*
X196905476Y-85458390D01*
X196905476Y-85458390D02*
X196953095Y-85506009D01*
X196953095Y-85506009D02*
X197000714Y-85601247D01*
X197000714Y-85601247D02*
X197000714Y-85839342D01*
X197000714Y-85839342D02*
X196953095Y-85934580D01*
X196953095Y-85934580D02*
X196905476Y-85982200D01*
X196905476Y-85982200D02*
X196810238Y-86029819D01*
X196810238Y-86029819D02*
X196572143Y-86029819D01*
X196572143Y-86029819D02*
X196476905Y-85982200D01*
X196476905Y-85982200D02*
X196429286Y-85934580D01*
X156638333Y-61359580D02*
X156590714Y-61407200D01*
X156590714Y-61407200D02*
X156447857Y-61454819D01*
X156447857Y-61454819D02*
X156352619Y-61454819D01*
X156352619Y-61454819D02*
X156209762Y-61407200D01*
X156209762Y-61407200D02*
X156114524Y-61311961D01*
X156114524Y-61311961D02*
X156066905Y-61216723D01*
X156066905Y-61216723D02*
X156019286Y-61026247D01*
X156019286Y-61026247D02*
X156019286Y-60883390D01*
X156019286Y-60883390D02*
X156066905Y-60692914D01*
X156066905Y-60692914D02*
X156114524Y-60597676D01*
X156114524Y-60597676D02*
X156209762Y-60502438D01*
X156209762Y-60502438D02*
X156352619Y-60454819D01*
X156352619Y-60454819D02*
X156447857Y-60454819D01*
X156447857Y-60454819D02*
X156590714Y-60502438D01*
X156590714Y-60502438D02*
X156638333Y-60550057D01*
X157543095Y-60454819D02*
X157066905Y-60454819D01*
X157066905Y-60454819D02*
X157019286Y-60931009D01*
X157019286Y-60931009D02*
X157066905Y-60883390D01*
X157066905Y-60883390D02*
X157162143Y-60835771D01*
X157162143Y-60835771D02*
X157400238Y-60835771D01*
X157400238Y-60835771D02*
X157495476Y-60883390D01*
X157495476Y-60883390D02*
X157543095Y-60931009D01*
X157543095Y-60931009D02*
X157590714Y-61026247D01*
X157590714Y-61026247D02*
X157590714Y-61264342D01*
X157590714Y-61264342D02*
X157543095Y-61359580D01*
X157543095Y-61359580D02*
X157495476Y-61407200D01*
X157495476Y-61407200D02*
X157400238Y-61454819D01*
X157400238Y-61454819D02*
X157162143Y-61454819D01*
X157162143Y-61454819D02*
X157066905Y-61407200D01*
X157066905Y-61407200D02*
X157019286Y-61359580D01*
X183348333Y-66314819D02*
X183015000Y-65838628D01*
X182776905Y-66314819D02*
X182776905Y-65314819D01*
X182776905Y-65314819D02*
X183157857Y-65314819D01*
X183157857Y-65314819D02*
X183253095Y-65362438D01*
X183253095Y-65362438D02*
X183300714Y-65410057D01*
X183300714Y-65410057D02*
X183348333Y-65505295D01*
X183348333Y-65505295D02*
X183348333Y-65648152D01*
X183348333Y-65648152D02*
X183300714Y-65743390D01*
X183300714Y-65743390D02*
X183253095Y-65791009D01*
X183253095Y-65791009D02*
X183157857Y-65838628D01*
X183157857Y-65838628D02*
X182776905Y-65838628D01*
X183919762Y-65743390D02*
X183824524Y-65695771D01*
X183824524Y-65695771D02*
X183776905Y-65648152D01*
X183776905Y-65648152D02*
X183729286Y-65552914D01*
X183729286Y-65552914D02*
X183729286Y-65505295D01*
X183729286Y-65505295D02*
X183776905Y-65410057D01*
X183776905Y-65410057D02*
X183824524Y-65362438D01*
X183824524Y-65362438D02*
X183919762Y-65314819D01*
X183919762Y-65314819D02*
X184110238Y-65314819D01*
X184110238Y-65314819D02*
X184205476Y-65362438D01*
X184205476Y-65362438D02*
X184253095Y-65410057D01*
X184253095Y-65410057D02*
X184300714Y-65505295D01*
X184300714Y-65505295D02*
X184300714Y-65552914D01*
X184300714Y-65552914D02*
X184253095Y-65648152D01*
X184253095Y-65648152D02*
X184205476Y-65695771D01*
X184205476Y-65695771D02*
X184110238Y-65743390D01*
X184110238Y-65743390D02*
X183919762Y-65743390D01*
X183919762Y-65743390D02*
X183824524Y-65791009D01*
X183824524Y-65791009D02*
X183776905Y-65838628D01*
X183776905Y-65838628D02*
X183729286Y-65933866D01*
X183729286Y-65933866D02*
X183729286Y-66124342D01*
X183729286Y-66124342D02*
X183776905Y-66219580D01*
X183776905Y-66219580D02*
X183824524Y-66267200D01*
X183824524Y-66267200D02*
X183919762Y-66314819D01*
X183919762Y-66314819D02*
X184110238Y-66314819D01*
X184110238Y-66314819D02*
X184205476Y-66267200D01*
X184205476Y-66267200D02*
X184253095Y-66219580D01*
X184253095Y-66219580D02*
X184300714Y-66124342D01*
X184300714Y-66124342D02*
X184300714Y-65933866D01*
X184300714Y-65933866D02*
X184253095Y-65838628D01*
X184253095Y-65838628D02*
X184205476Y-65791009D01*
X184205476Y-65791009D02*
X184110238Y-65743390D01*
X168441905Y-70574819D02*
X169013333Y-70574819D01*
X168727619Y-71574819D02*
X168727619Y-70574819D01*
X169346667Y-71574819D02*
X169346667Y-70574819D01*
X169346667Y-70574819D02*
X169727619Y-70574819D01*
X169727619Y-70574819D02*
X169822857Y-70622438D01*
X169822857Y-70622438D02*
X169870476Y-70670057D01*
X169870476Y-70670057D02*
X169918095Y-70765295D01*
X169918095Y-70765295D02*
X169918095Y-70908152D01*
X169918095Y-70908152D02*
X169870476Y-71003390D01*
X169870476Y-71003390D02*
X169822857Y-71051009D01*
X169822857Y-71051009D02*
X169727619Y-71098628D01*
X169727619Y-71098628D02*
X169346667Y-71098628D01*
X170870476Y-71574819D02*
X170299048Y-71574819D01*
X170584762Y-71574819D02*
X170584762Y-70574819D01*
X170584762Y-70574819D02*
X170489524Y-70717676D01*
X170489524Y-70717676D02*
X170394286Y-70812914D01*
X170394286Y-70812914D02*
X170299048Y-70860533D01*
X171489524Y-70574819D02*
X171584762Y-70574819D01*
X171584762Y-70574819D02*
X171680000Y-70622438D01*
X171680000Y-70622438D02*
X171727619Y-70670057D01*
X171727619Y-70670057D02*
X171775238Y-70765295D01*
X171775238Y-70765295D02*
X171822857Y-70955771D01*
X171822857Y-70955771D02*
X171822857Y-71193866D01*
X171822857Y-71193866D02*
X171775238Y-71384342D01*
X171775238Y-71384342D02*
X171727619Y-71479580D01*
X171727619Y-71479580D02*
X171680000Y-71527200D01*
X171680000Y-71527200D02*
X171584762Y-71574819D01*
X171584762Y-71574819D02*
X171489524Y-71574819D01*
X171489524Y-71574819D02*
X171394286Y-71527200D01*
X171394286Y-71527200D02*
X171346667Y-71479580D01*
X171346667Y-71479580D02*
X171299048Y-71384342D01*
X171299048Y-71384342D02*
X171251429Y-71193866D01*
X171251429Y-71193866D02*
X171251429Y-70955771D01*
X171251429Y-70955771D02*
X171299048Y-70765295D01*
X171299048Y-70765295D02*
X171346667Y-70670057D01*
X171346667Y-70670057D02*
X171394286Y-70622438D01*
X171394286Y-70622438D02*
X171489524Y-70574819D01*
X195476905Y-126669819D02*
X195476905Y-125669819D01*
X195476905Y-125669819D02*
X195715000Y-125669819D01*
X195715000Y-125669819D02*
X195857857Y-125717438D01*
X195857857Y-125717438D02*
X195953095Y-125812676D01*
X195953095Y-125812676D02*
X196000714Y-125907914D01*
X196000714Y-125907914D02*
X196048333Y-126098390D01*
X196048333Y-126098390D02*
X196048333Y-126241247D01*
X196048333Y-126241247D02*
X196000714Y-126431723D01*
X196000714Y-126431723D02*
X195953095Y-126526961D01*
X195953095Y-126526961D02*
X195857857Y-126622200D01*
X195857857Y-126622200D02*
X195715000Y-126669819D01*
X195715000Y-126669819D02*
X195476905Y-126669819D01*
X196524524Y-126669819D02*
X196715000Y-126669819D01*
X196715000Y-126669819D02*
X196810238Y-126622200D01*
X196810238Y-126622200D02*
X196857857Y-126574580D01*
X196857857Y-126574580D02*
X196953095Y-126431723D01*
X196953095Y-126431723D02*
X197000714Y-126241247D01*
X197000714Y-126241247D02*
X197000714Y-125860295D01*
X197000714Y-125860295D02*
X196953095Y-125765057D01*
X196953095Y-125765057D02*
X196905476Y-125717438D01*
X196905476Y-125717438D02*
X196810238Y-125669819D01*
X196810238Y-125669819D02*
X196619762Y-125669819D01*
X196619762Y-125669819D02*
X196524524Y-125717438D01*
X196524524Y-125717438D02*
X196476905Y-125765057D01*
X196476905Y-125765057D02*
X196429286Y-125860295D01*
X196429286Y-125860295D02*
X196429286Y-126098390D01*
X196429286Y-126098390D02*
X196476905Y-126193628D01*
X196476905Y-126193628D02*
X196524524Y-126241247D01*
X196524524Y-126241247D02*
X196619762Y-126288866D01*
X196619762Y-126288866D02*
X196810238Y-126288866D01*
X196810238Y-126288866D02*
X196905476Y-126241247D01*
X196905476Y-126241247D02*
X196953095Y-126193628D01*
X196953095Y-126193628D02*
X197000714Y-126098390D01*
X146873895Y-134669819D02*
X147445323Y-134669819D01*
X147159609Y-135669819D02*
X147159609Y-134669819D01*
X147778657Y-135669819D02*
X147778657Y-134669819D01*
X147778657Y-134669819D02*
X148159609Y-134669819D01*
X148159609Y-134669819D02*
X148254847Y-134717438D01*
X148254847Y-134717438D02*
X148302466Y-134765057D01*
X148302466Y-134765057D02*
X148350085Y-134860295D01*
X148350085Y-134860295D02*
X148350085Y-135003152D01*
X148350085Y-135003152D02*
X148302466Y-135098390D01*
X148302466Y-135098390D02*
X148254847Y-135146009D01*
X148254847Y-135146009D02*
X148159609Y-135193628D01*
X148159609Y-135193628D02*
X147778657Y-135193628D01*
X148683419Y-134669819D02*
X149350085Y-134669819D01*
X149350085Y-134669819D02*
X148921514Y-135669819D01*
X155408333Y-68219819D02*
X155075000Y-67743628D01*
X154836905Y-68219819D02*
X154836905Y-67219819D01*
X154836905Y-67219819D02*
X155217857Y-67219819D01*
X155217857Y-67219819D02*
X155313095Y-67267438D01*
X155313095Y-67267438D02*
X155360714Y-67315057D01*
X155360714Y-67315057D02*
X155408333Y-67410295D01*
X155408333Y-67410295D02*
X155408333Y-67553152D01*
X155408333Y-67553152D02*
X155360714Y-67648390D01*
X155360714Y-67648390D02*
X155313095Y-67696009D01*
X155313095Y-67696009D02*
X155217857Y-67743628D01*
X155217857Y-67743628D02*
X154836905Y-67743628D01*
X156265476Y-67553152D02*
X156265476Y-68219819D01*
X156027381Y-67172200D02*
X155789286Y-67886485D01*
X155789286Y-67886485D02*
X156408333Y-67886485D01*
X133740619Y-118911666D02*
X133264428Y-119244999D01*
X133740619Y-119483094D02*
X132740619Y-119483094D01*
X132740619Y-119483094D02*
X132740619Y-119102142D01*
X132740619Y-119102142D02*
X132788238Y-119006904D01*
X132788238Y-119006904D02*
X132835857Y-118959285D01*
X132835857Y-118959285D02*
X132931095Y-118911666D01*
X132931095Y-118911666D02*
X133073952Y-118911666D01*
X133073952Y-118911666D02*
X133169190Y-118959285D01*
X133169190Y-118959285D02*
X133216809Y-119006904D01*
X133216809Y-119006904D02*
X133264428Y-119102142D01*
X133264428Y-119102142D02*
X133264428Y-119483094D01*
X132740619Y-118054523D02*
X132740619Y-118244999D01*
X132740619Y-118244999D02*
X132788238Y-118340237D01*
X132788238Y-118340237D02*
X132835857Y-118387856D01*
X132835857Y-118387856D02*
X132978714Y-118483094D01*
X132978714Y-118483094D02*
X133169190Y-118530713D01*
X133169190Y-118530713D02*
X133550142Y-118530713D01*
X133550142Y-118530713D02*
X133645380Y-118483094D01*
X133645380Y-118483094D02*
X133693000Y-118435475D01*
X133693000Y-118435475D02*
X133740619Y-118340237D01*
X133740619Y-118340237D02*
X133740619Y-118149761D01*
X133740619Y-118149761D02*
X133693000Y-118054523D01*
X133693000Y-118054523D02*
X133645380Y-118006904D01*
X133645380Y-118006904D02*
X133550142Y-117959285D01*
X133550142Y-117959285D02*
X133312047Y-117959285D01*
X133312047Y-117959285D02*
X133216809Y-118006904D01*
X133216809Y-118006904D02*
X133169190Y-118054523D01*
X133169190Y-118054523D02*
X133121571Y-118149761D01*
X133121571Y-118149761D02*
X133121571Y-118340237D01*
X133121571Y-118340237D02*
X133169190Y-118435475D01*
X133169190Y-118435475D02*
X133216809Y-118483094D01*
X133216809Y-118483094D02*
X133312047Y-118530713D01*
X154493895Y-134669819D02*
X155065323Y-134669819D01*
X154779609Y-135669819D02*
X154779609Y-134669819D01*
X155398657Y-135669819D02*
X155398657Y-134669819D01*
X155398657Y-134669819D02*
X155779609Y-134669819D01*
X155779609Y-134669819D02*
X155874847Y-134717438D01*
X155874847Y-134717438D02*
X155922466Y-134765057D01*
X155922466Y-134765057D02*
X155970085Y-134860295D01*
X155970085Y-134860295D02*
X155970085Y-135003152D01*
X155970085Y-135003152D02*
X155922466Y-135098390D01*
X155922466Y-135098390D02*
X155874847Y-135146009D01*
X155874847Y-135146009D02*
X155779609Y-135193628D01*
X155779609Y-135193628D02*
X155398657Y-135193628D01*
X156541514Y-135098390D02*
X156446276Y-135050771D01*
X156446276Y-135050771D02*
X156398657Y-135003152D01*
X156398657Y-135003152D02*
X156351038Y-134907914D01*
X156351038Y-134907914D02*
X156351038Y-134860295D01*
X156351038Y-134860295D02*
X156398657Y-134765057D01*
X156398657Y-134765057D02*
X156446276Y-134717438D01*
X156446276Y-134717438D02*
X156541514Y-134669819D01*
X156541514Y-134669819D02*
X156731990Y-134669819D01*
X156731990Y-134669819D02*
X156827228Y-134717438D01*
X156827228Y-134717438D02*
X156874847Y-134765057D01*
X156874847Y-134765057D02*
X156922466Y-134860295D01*
X156922466Y-134860295D02*
X156922466Y-134907914D01*
X156922466Y-134907914D02*
X156874847Y-135003152D01*
X156874847Y-135003152D02*
X156827228Y-135050771D01*
X156827228Y-135050771D02*
X156731990Y-135098390D01*
X156731990Y-135098390D02*
X156541514Y-135098390D01*
X156541514Y-135098390D02*
X156446276Y-135146009D01*
X156446276Y-135146009D02*
X156398657Y-135193628D01*
X156398657Y-135193628D02*
X156351038Y-135288866D01*
X156351038Y-135288866D02*
X156351038Y-135479342D01*
X156351038Y-135479342D02*
X156398657Y-135574580D01*
X156398657Y-135574580D02*
X156446276Y-135622200D01*
X156446276Y-135622200D02*
X156541514Y-135669819D01*
X156541514Y-135669819D02*
X156731990Y-135669819D01*
X156731990Y-135669819D02*
X156827228Y-135622200D01*
X156827228Y-135622200D02*
X156874847Y-135574580D01*
X156874847Y-135574580D02*
X156922466Y-135479342D01*
X156922466Y-135479342D02*
X156922466Y-135288866D01*
X156922466Y-135288866D02*
X156874847Y-135193628D01*
X156874847Y-135193628D02*
X156827228Y-135146009D01*
X156827228Y-135146009D02*
X156731990Y-135098390D01*
X182872142Y-127909819D02*
X182538809Y-127433628D01*
X182300714Y-127909819D02*
X182300714Y-126909819D01*
X182300714Y-126909819D02*
X182681666Y-126909819D01*
X182681666Y-126909819D02*
X182776904Y-126957438D01*
X182776904Y-126957438D02*
X182824523Y-127005057D01*
X182824523Y-127005057D02*
X182872142Y-127100295D01*
X182872142Y-127100295D02*
X182872142Y-127243152D01*
X182872142Y-127243152D02*
X182824523Y-127338390D01*
X182824523Y-127338390D02*
X182776904Y-127386009D01*
X182776904Y-127386009D02*
X182681666Y-127433628D01*
X182681666Y-127433628D02*
X182300714Y-127433628D01*
X183824523Y-127909819D02*
X183253095Y-127909819D01*
X183538809Y-127909819D02*
X183538809Y-126909819D01*
X183538809Y-126909819D02*
X183443571Y-127052676D01*
X183443571Y-127052676D02*
X183348333Y-127147914D01*
X183348333Y-127147914D02*
X183253095Y-127195533D01*
X184681666Y-127243152D02*
X184681666Y-127909819D01*
X184443571Y-126862200D02*
X184205476Y-127576485D01*
X184205476Y-127576485D02*
X184824523Y-127576485D01*
X195471905Y-116509819D02*
X195471905Y-115509819D01*
X195471905Y-115509819D02*
X195710000Y-115509819D01*
X195710000Y-115509819D02*
X195852857Y-115557438D01*
X195852857Y-115557438D02*
X195948095Y-115652676D01*
X195948095Y-115652676D02*
X195995714Y-115747914D01*
X195995714Y-115747914D02*
X196043333Y-115938390D01*
X196043333Y-115938390D02*
X196043333Y-116081247D01*
X196043333Y-116081247D02*
X195995714Y-116271723D01*
X195995714Y-116271723D02*
X195948095Y-116366961D01*
X195948095Y-116366961D02*
X195852857Y-116462200D01*
X195852857Y-116462200D02*
X195710000Y-116509819D01*
X195710000Y-116509819D02*
X195471905Y-116509819D01*
X196614762Y-115938390D02*
X196519524Y-115890771D01*
X196519524Y-115890771D02*
X196471905Y-115843152D01*
X196471905Y-115843152D02*
X196424286Y-115747914D01*
X196424286Y-115747914D02*
X196424286Y-115700295D01*
X196424286Y-115700295D02*
X196471905Y-115605057D01*
X196471905Y-115605057D02*
X196519524Y-115557438D01*
X196519524Y-115557438D02*
X196614762Y-115509819D01*
X196614762Y-115509819D02*
X196805238Y-115509819D01*
X196805238Y-115509819D02*
X196900476Y-115557438D01*
X196900476Y-115557438D02*
X196948095Y-115605057D01*
X196948095Y-115605057D02*
X196995714Y-115700295D01*
X196995714Y-115700295D02*
X196995714Y-115747914D01*
X196995714Y-115747914D02*
X196948095Y-115843152D01*
X196948095Y-115843152D02*
X196900476Y-115890771D01*
X196900476Y-115890771D02*
X196805238Y-115938390D01*
X196805238Y-115938390D02*
X196614762Y-115938390D01*
X196614762Y-115938390D02*
X196519524Y-115986009D01*
X196519524Y-115986009D02*
X196471905Y-116033628D01*
X196471905Y-116033628D02*
X196424286Y-116128866D01*
X196424286Y-116128866D02*
X196424286Y-116319342D01*
X196424286Y-116319342D02*
X196471905Y-116414580D01*
X196471905Y-116414580D02*
X196519524Y-116462200D01*
X196519524Y-116462200D02*
X196614762Y-116509819D01*
X196614762Y-116509819D02*
X196805238Y-116509819D01*
X196805238Y-116509819D02*
X196900476Y-116462200D01*
X196900476Y-116462200D02*
X196948095Y-116414580D01*
X196948095Y-116414580D02*
X196995714Y-116319342D01*
X196995714Y-116319342D02*
X196995714Y-116128866D01*
X196995714Y-116128866D02*
X196948095Y-116033628D01*
X196948095Y-116033628D02*
X196900476Y-115986009D01*
X196900476Y-115986009D02*
X196805238Y-115938390D01*
X81288095Y-120739819D02*
X81859523Y-120739819D01*
X81573809Y-121739819D02*
X81573809Y-120739819D01*
X82192857Y-121739819D02*
X82192857Y-120739819D01*
X82192857Y-120739819D02*
X82573809Y-120739819D01*
X82573809Y-120739819D02*
X82669047Y-120787438D01*
X82669047Y-120787438D02*
X82716666Y-120835057D01*
X82716666Y-120835057D02*
X82764285Y-120930295D01*
X82764285Y-120930295D02*
X82764285Y-121073152D01*
X82764285Y-121073152D02*
X82716666Y-121168390D01*
X82716666Y-121168390D02*
X82669047Y-121216009D01*
X82669047Y-121216009D02*
X82573809Y-121263628D01*
X82573809Y-121263628D02*
X82192857Y-121263628D01*
X83716666Y-121739819D02*
X83145238Y-121739819D01*
X83430952Y-121739819D02*
X83430952Y-120739819D01*
X83430952Y-120739819D02*
X83335714Y-120882676D01*
X83335714Y-120882676D02*
X83240476Y-120977914D01*
X83240476Y-120977914D02*
X83145238Y-121025533D01*
X145268095Y-51744819D02*
X145268095Y-52554342D01*
X145268095Y-52554342D02*
X145315714Y-52649580D01*
X145315714Y-52649580D02*
X145363333Y-52697200D01*
X145363333Y-52697200D02*
X145458571Y-52744819D01*
X145458571Y-52744819D02*
X145649047Y-52744819D01*
X145649047Y-52744819D02*
X145744285Y-52697200D01*
X145744285Y-52697200D02*
X145791904Y-52649580D01*
X145791904Y-52649580D02*
X145839523Y-52554342D01*
X145839523Y-52554342D02*
X145839523Y-51744819D01*
X146268095Y-51840057D02*
X146315714Y-51792438D01*
X146315714Y-51792438D02*
X146410952Y-51744819D01*
X146410952Y-51744819D02*
X146649047Y-51744819D01*
X146649047Y-51744819D02*
X146744285Y-51792438D01*
X146744285Y-51792438D02*
X146791904Y-51840057D01*
X146791904Y-51840057D02*
X146839523Y-51935295D01*
X146839523Y-51935295D02*
X146839523Y-52030533D01*
X146839523Y-52030533D02*
X146791904Y-52173390D01*
X146791904Y-52173390D02*
X146220476Y-52744819D01*
X146220476Y-52744819D02*
X146839523Y-52744819D01*
X138194580Y-90971666D02*
X138242200Y-91019285D01*
X138242200Y-91019285D02*
X138289819Y-91162142D01*
X138289819Y-91162142D02*
X138289819Y-91257380D01*
X138289819Y-91257380D02*
X138242200Y-91400237D01*
X138242200Y-91400237D02*
X138146961Y-91495475D01*
X138146961Y-91495475D02*
X138051723Y-91543094D01*
X138051723Y-91543094D02*
X137861247Y-91590713D01*
X137861247Y-91590713D02*
X137718390Y-91590713D01*
X137718390Y-91590713D02*
X137527914Y-91543094D01*
X137527914Y-91543094D02*
X137432676Y-91495475D01*
X137432676Y-91495475D02*
X137337438Y-91400237D01*
X137337438Y-91400237D02*
X137289819Y-91257380D01*
X137289819Y-91257380D02*
X137289819Y-91162142D01*
X137289819Y-91162142D02*
X137337438Y-91019285D01*
X137337438Y-91019285D02*
X137385057Y-90971666D01*
X137289819Y-90638332D02*
X137289819Y-89971666D01*
X137289819Y-89971666D02*
X138289819Y-90400237D01*
X138618895Y-134669819D02*
X139190323Y-134669819D01*
X138904609Y-135669819D02*
X138904609Y-134669819D01*
X139523657Y-135669819D02*
X139523657Y-134669819D01*
X139523657Y-134669819D02*
X139904609Y-134669819D01*
X139904609Y-134669819D02*
X139999847Y-134717438D01*
X139999847Y-134717438D02*
X140047466Y-134765057D01*
X140047466Y-134765057D02*
X140095085Y-134860295D01*
X140095085Y-134860295D02*
X140095085Y-135003152D01*
X140095085Y-135003152D02*
X140047466Y-135098390D01*
X140047466Y-135098390D02*
X139999847Y-135146009D01*
X139999847Y-135146009D02*
X139904609Y-135193628D01*
X139904609Y-135193628D02*
X139523657Y-135193628D01*
X140952228Y-134669819D02*
X140761752Y-134669819D01*
X140761752Y-134669819D02*
X140666514Y-134717438D01*
X140666514Y-134717438D02*
X140618895Y-134765057D01*
X140618895Y-134765057D02*
X140523657Y-134907914D01*
X140523657Y-134907914D02*
X140476038Y-135098390D01*
X140476038Y-135098390D02*
X140476038Y-135479342D01*
X140476038Y-135479342D02*
X140523657Y-135574580D01*
X140523657Y-135574580D02*
X140571276Y-135622200D01*
X140571276Y-135622200D02*
X140666514Y-135669819D01*
X140666514Y-135669819D02*
X140856990Y-135669819D01*
X140856990Y-135669819D02*
X140952228Y-135622200D01*
X140952228Y-135622200D02*
X140999847Y-135574580D01*
X140999847Y-135574580D02*
X141047466Y-135479342D01*
X141047466Y-135479342D02*
X141047466Y-135241247D01*
X141047466Y-135241247D02*
X140999847Y-135146009D01*
X140999847Y-135146009D02*
X140952228Y-135098390D01*
X140952228Y-135098390D02*
X140856990Y-135050771D01*
X140856990Y-135050771D02*
X140666514Y-135050771D01*
X140666514Y-135050771D02*
X140571276Y-135098390D01*
X140571276Y-135098390D02*
X140523657Y-135146009D01*
X140523657Y-135146009D02*
X140476038Y-135241247D01*
X168441905Y-81369819D02*
X169013333Y-81369819D01*
X168727619Y-82369819D02*
X168727619Y-81369819D01*
X169346667Y-82369819D02*
X169346667Y-81369819D01*
X169346667Y-81369819D02*
X169727619Y-81369819D01*
X169727619Y-81369819D02*
X169822857Y-81417438D01*
X169822857Y-81417438D02*
X169870476Y-81465057D01*
X169870476Y-81465057D02*
X169918095Y-81560295D01*
X169918095Y-81560295D02*
X169918095Y-81703152D01*
X169918095Y-81703152D02*
X169870476Y-81798390D01*
X169870476Y-81798390D02*
X169822857Y-81846009D01*
X169822857Y-81846009D02*
X169727619Y-81893628D01*
X169727619Y-81893628D02*
X169346667Y-81893628D01*
X170870476Y-82369819D02*
X170299048Y-82369819D01*
X170584762Y-82369819D02*
X170584762Y-81369819D01*
X170584762Y-81369819D02*
X170489524Y-81512676D01*
X170489524Y-81512676D02*
X170394286Y-81607914D01*
X170394286Y-81607914D02*
X170299048Y-81655533D01*
X171822857Y-82369819D02*
X171251429Y-82369819D01*
X171537143Y-82369819D02*
X171537143Y-81369819D01*
X171537143Y-81369819D02*
X171441905Y-81512676D01*
X171441905Y-81512676D02*
X171346667Y-81607914D01*
X171346667Y-81607914D02*
X171251429Y-81655533D01*
X127008095Y-116929819D02*
X127579523Y-116929819D01*
X127293809Y-117929819D02*
X127293809Y-116929819D01*
X127912857Y-117929819D02*
X127912857Y-116929819D01*
X127912857Y-116929819D02*
X128293809Y-116929819D01*
X128293809Y-116929819D02*
X128389047Y-116977438D01*
X128389047Y-116977438D02*
X128436666Y-117025057D01*
X128436666Y-117025057D02*
X128484285Y-117120295D01*
X128484285Y-117120295D02*
X128484285Y-117263152D01*
X128484285Y-117263152D02*
X128436666Y-117358390D01*
X128436666Y-117358390D02*
X128389047Y-117406009D01*
X128389047Y-117406009D02*
X128293809Y-117453628D01*
X128293809Y-117453628D02*
X127912857Y-117453628D01*
X128865238Y-117025057D02*
X128912857Y-116977438D01*
X128912857Y-116977438D02*
X129008095Y-116929819D01*
X129008095Y-116929819D02*
X129246190Y-116929819D01*
X129246190Y-116929819D02*
X129341428Y-116977438D01*
X129341428Y-116977438D02*
X129389047Y-117025057D01*
X129389047Y-117025057D02*
X129436666Y-117120295D01*
X129436666Y-117120295D02*
X129436666Y-117215533D01*
X129436666Y-117215533D02*
X129389047Y-117358390D01*
X129389047Y-117358390D02*
X128817619Y-117929819D01*
X128817619Y-117929819D02*
X129436666Y-117929819D01*
X183348333Y-56789819D02*
X183015000Y-56313628D01*
X182776905Y-56789819D02*
X182776905Y-55789819D01*
X182776905Y-55789819D02*
X183157857Y-55789819D01*
X183157857Y-55789819D02*
X183253095Y-55837438D01*
X183253095Y-55837438D02*
X183300714Y-55885057D01*
X183300714Y-55885057D02*
X183348333Y-55980295D01*
X183348333Y-55980295D02*
X183348333Y-56123152D01*
X183348333Y-56123152D02*
X183300714Y-56218390D01*
X183300714Y-56218390D02*
X183253095Y-56266009D01*
X183253095Y-56266009D02*
X183157857Y-56313628D01*
X183157857Y-56313628D02*
X182776905Y-56313628D01*
X183681667Y-55789819D02*
X184348333Y-55789819D01*
X184348333Y-55789819D02*
X183919762Y-56789819D01*
X182872142Y-117749819D02*
X182538809Y-117273628D01*
X182300714Y-117749819D02*
X182300714Y-116749819D01*
X182300714Y-116749819D02*
X182681666Y-116749819D01*
X182681666Y-116749819D02*
X182776904Y-116797438D01*
X182776904Y-116797438D02*
X182824523Y-116845057D01*
X182824523Y-116845057D02*
X182872142Y-116940295D01*
X182872142Y-116940295D02*
X182872142Y-117083152D01*
X182872142Y-117083152D02*
X182824523Y-117178390D01*
X182824523Y-117178390D02*
X182776904Y-117226009D01*
X182776904Y-117226009D02*
X182681666Y-117273628D01*
X182681666Y-117273628D02*
X182300714Y-117273628D01*
X183824523Y-117749819D02*
X183253095Y-117749819D01*
X183538809Y-117749819D02*
X183538809Y-116749819D01*
X183538809Y-116749819D02*
X183443571Y-116892676D01*
X183443571Y-116892676D02*
X183348333Y-116987914D01*
X183348333Y-116987914D02*
X183253095Y-117035533D01*
X184157857Y-116749819D02*
X184776904Y-116749819D01*
X184776904Y-116749819D02*
X184443571Y-117130771D01*
X184443571Y-117130771D02*
X184586428Y-117130771D01*
X184586428Y-117130771D02*
X184681666Y-117178390D01*
X184681666Y-117178390D02*
X184729285Y-117226009D01*
X184729285Y-117226009D02*
X184776904Y-117321247D01*
X184776904Y-117321247D02*
X184776904Y-117559342D01*
X184776904Y-117559342D02*
X184729285Y-117654580D01*
X184729285Y-117654580D02*
X184681666Y-117702200D01*
X184681666Y-117702200D02*
X184586428Y-117749819D01*
X184586428Y-117749819D02*
X184300714Y-117749819D01*
X184300714Y-117749819D02*
X184205476Y-117702200D01*
X184205476Y-117702200D02*
X184157857Y-117654580D01*
X182872142Y-98064819D02*
X182538809Y-97588628D01*
X182300714Y-98064819D02*
X182300714Y-97064819D01*
X182300714Y-97064819D02*
X182681666Y-97064819D01*
X182681666Y-97064819D02*
X182776904Y-97112438D01*
X182776904Y-97112438D02*
X182824523Y-97160057D01*
X182824523Y-97160057D02*
X182872142Y-97255295D01*
X182872142Y-97255295D02*
X182872142Y-97398152D01*
X182872142Y-97398152D02*
X182824523Y-97493390D01*
X182824523Y-97493390D02*
X182776904Y-97541009D01*
X182776904Y-97541009D02*
X182681666Y-97588628D01*
X182681666Y-97588628D02*
X182300714Y-97588628D01*
X183824523Y-98064819D02*
X183253095Y-98064819D01*
X183538809Y-98064819D02*
X183538809Y-97064819D01*
X183538809Y-97064819D02*
X183443571Y-97207676D01*
X183443571Y-97207676D02*
X183348333Y-97302914D01*
X183348333Y-97302914D02*
X183253095Y-97350533D01*
X184776904Y-98064819D02*
X184205476Y-98064819D01*
X184491190Y-98064819D02*
X184491190Y-97064819D01*
X184491190Y-97064819D02*
X184395952Y-97207676D01*
X184395952Y-97207676D02*
X184300714Y-97302914D01*
X184300714Y-97302914D02*
X184205476Y-97350533D01*
X195476905Y-106349819D02*
X195476905Y-105349819D01*
X195476905Y-105349819D02*
X195715000Y-105349819D01*
X195715000Y-105349819D02*
X195857857Y-105397438D01*
X195857857Y-105397438D02*
X195953095Y-105492676D01*
X195953095Y-105492676D02*
X196000714Y-105587914D01*
X196000714Y-105587914D02*
X196048333Y-105778390D01*
X196048333Y-105778390D02*
X196048333Y-105921247D01*
X196048333Y-105921247D02*
X196000714Y-106111723D01*
X196000714Y-106111723D02*
X195953095Y-106206961D01*
X195953095Y-106206961D02*
X195857857Y-106302200D01*
X195857857Y-106302200D02*
X195715000Y-106349819D01*
X195715000Y-106349819D02*
X195476905Y-106349819D01*
X196381667Y-105349819D02*
X197048333Y-105349819D01*
X197048333Y-105349819D02*
X196619762Y-106349819D01*
X147153333Y-74569819D02*
X146820000Y-74093628D01*
X146581905Y-74569819D02*
X146581905Y-73569819D01*
X146581905Y-73569819D02*
X146962857Y-73569819D01*
X146962857Y-73569819D02*
X147058095Y-73617438D01*
X147058095Y-73617438D02*
X147105714Y-73665057D01*
X147105714Y-73665057D02*
X147153333Y-73760295D01*
X147153333Y-73760295D02*
X147153333Y-73903152D01*
X147153333Y-73903152D02*
X147105714Y-73998390D01*
X147105714Y-73998390D02*
X147058095Y-74046009D01*
X147058095Y-74046009D02*
X146962857Y-74093628D01*
X146962857Y-74093628D02*
X146581905Y-74093628D01*
X147486667Y-73569819D02*
X148105714Y-73569819D01*
X148105714Y-73569819D02*
X147772381Y-73950771D01*
X147772381Y-73950771D02*
X147915238Y-73950771D01*
X147915238Y-73950771D02*
X148010476Y-73998390D01*
X148010476Y-73998390D02*
X148058095Y-74046009D01*
X148058095Y-74046009D02*
X148105714Y-74141247D01*
X148105714Y-74141247D02*
X148105714Y-74379342D01*
X148105714Y-74379342D02*
X148058095Y-74474580D01*
X148058095Y-74474580D02*
X148010476Y-74522200D01*
X148010476Y-74522200D02*
X147915238Y-74569819D01*
X147915238Y-74569819D02*
X147629524Y-74569819D01*
X147629524Y-74569819D02*
X147534286Y-74522200D01*
X147534286Y-74522200D02*
X147486667Y-74474580D01*
X195471905Y-96189819D02*
X195471905Y-95189819D01*
X195471905Y-95189819D02*
X195710000Y-95189819D01*
X195710000Y-95189819D02*
X195852857Y-95237438D01*
X195852857Y-95237438D02*
X195948095Y-95332676D01*
X195948095Y-95332676D02*
X195995714Y-95427914D01*
X195995714Y-95427914D02*
X196043333Y-95618390D01*
X196043333Y-95618390D02*
X196043333Y-95761247D01*
X196043333Y-95761247D02*
X195995714Y-95951723D01*
X195995714Y-95951723D02*
X195948095Y-96046961D01*
X195948095Y-96046961D02*
X195852857Y-96142200D01*
X195852857Y-96142200D02*
X195710000Y-96189819D01*
X195710000Y-96189819D02*
X195471905Y-96189819D01*
X196900476Y-95189819D02*
X196710000Y-95189819D01*
X196710000Y-95189819D02*
X196614762Y-95237438D01*
X196614762Y-95237438D02*
X196567143Y-95285057D01*
X196567143Y-95285057D02*
X196471905Y-95427914D01*
X196471905Y-95427914D02*
X196424286Y-95618390D01*
X196424286Y-95618390D02*
X196424286Y-95999342D01*
X196424286Y-95999342D02*
X196471905Y-96094580D01*
X196471905Y-96094580D02*
X196519524Y-96142200D01*
X196519524Y-96142200D02*
X196614762Y-96189819D01*
X196614762Y-96189819D02*
X196805238Y-96189819D01*
X196805238Y-96189819D02*
X196900476Y-96142200D01*
X196900476Y-96142200D02*
X196948095Y-96094580D01*
X196948095Y-96094580D02*
X196995714Y-95999342D01*
X196995714Y-95999342D02*
X196995714Y-95761247D01*
X196995714Y-95761247D02*
X196948095Y-95666009D01*
X196948095Y-95666009D02*
X196900476Y-95618390D01*
X196900476Y-95618390D02*
X196805238Y-95570771D01*
X196805238Y-95570771D02*
X196614762Y-95570771D01*
X196614762Y-95570771D02*
X196519524Y-95618390D01*
X196519524Y-95618390D02*
X196471905Y-95666009D01*
X196471905Y-95666009D02*
X196424286Y-95761247D01*
D12*
%TO.C,C3*%
X133250000Y-59000000D02*
X133695000Y-59000000D01*
X133250000Y-59000000D02*
X133250000Y-52760000D01*
X135545000Y-59000000D02*
X135990000Y-59000000D01*
X135990000Y-59000000D02*
X135990000Y-52760000D01*
X133250000Y-52760000D02*
X133695000Y-52760000D01*
X135545000Y-52760000D02*
X135990000Y-52760000D01*
%TO.C,C2*%
X109755000Y-125040000D02*
X110200000Y-125040000D01*
X109755000Y-125040000D02*
X109755000Y-118800000D01*
X112050000Y-125040000D02*
X112495000Y-125040000D01*
X112495000Y-125040000D02*
X112495000Y-118800000D01*
X109755000Y-118800000D02*
X110200000Y-118800000D01*
X112050000Y-118800000D02*
X112495000Y-118800000D01*
D13*
%TO.C,U3*%
X142705800Y-108265000D02*
X149305800Y-108265000D01*
X142705800Y-109585000D02*
X142705800Y-108265000D01*
X142705800Y-127955000D02*
X142705800Y-126635000D01*
X149305800Y-108265000D02*
X149305800Y-109585000D01*
X149305800Y-126635000D02*
X149305800Y-127955000D01*
X149305800Y-127955000D02*
X142705800Y-127955000D01*
D14*
X141050800Y-110490000D02*
G75*
G03*
X141050800Y-110490000I-100000J0D01*
G01*
D12*
%TO.C,C4*%
X155475000Y-59595000D02*
X155920000Y-59595000D01*
X155475000Y-59595000D02*
X155475000Y-53355000D01*
X157770000Y-59595000D02*
X158215000Y-59595000D01*
X158215000Y-59595000D02*
X158215000Y-53355000D01*
X155475000Y-53355000D02*
X155920000Y-53355000D01*
X157770000Y-53355000D02*
X158215000Y-53355000D01*
%TO.C,TP17*%
X83415000Y-71755000D02*
G75*
G03*
X83415000Y-71755000I-1500000J0D01*
G01*
%TO.C,TP5*%
X137505800Y-107315000D02*
G75*
G03*
X137505800Y-107315000I-1500000J0D01*
G01*
D11*
%TO.C,J1*%
X127960000Y-57500000D02*
X90469600Y-57500000D01*
X127960000Y-57500000D02*
X127960000Y-110130000D01*
X90469600Y-57500000D02*
X90469600Y-110130000D01*
X127960000Y-110130000D02*
X90469600Y-110130000D01*
D12*
%TO.C,TP9*%
X171680000Y-59055000D02*
G75*
G03*
X171680000Y-59055000I-1500000J0D01*
G01*
%TO.C,R12*%
X178205000Y-109855000D02*
X178895000Y-109855000D01*
X178895000Y-108135000D02*
X178895000Y-111575000D01*
X178895000Y-111575000D02*
X188135000Y-111575000D01*
X188135000Y-108135000D02*
X178895000Y-108135000D01*
X188135000Y-111575000D02*
X188135000Y-108135000D01*
X188825000Y-109855000D02*
X188135000Y-109855000D01*
%TO.C,TP16*%
X172315000Y-130175000D02*
G75*
G03*
X172315000Y-130175000I-1500000J0D01*
G01*
%TO.C,R2*%
X133120000Y-70485000D02*
X133810000Y-70485000D01*
X133810000Y-68765000D02*
X133810000Y-72205000D01*
X133810000Y-72205000D02*
X143050000Y-72205000D01*
X143050000Y-68765000D02*
X133810000Y-68765000D01*
X143050000Y-72205000D02*
X143050000Y-68765000D01*
X143740000Y-70485000D02*
X143050000Y-70485000D01*
%TO.C,C1*%
X125830000Y-126420000D02*
X125385000Y-126420000D01*
X125830000Y-126420000D02*
X125830000Y-132660000D01*
X123535000Y-126420000D02*
X123090000Y-126420000D01*
X123090000Y-126420000D02*
X123090000Y-132660000D01*
X125830000Y-132660000D02*
X125385000Y-132660000D01*
X123535000Y-132660000D02*
X123090000Y-132660000D01*
%TO.C,R10*%
X178205000Y-90170000D02*
X178895000Y-90170000D01*
X178895000Y-88450000D02*
X178895000Y-91890000D01*
X178895000Y-91890000D02*
X188135000Y-91890000D01*
X188135000Y-88450000D02*
X178895000Y-88450000D01*
X188135000Y-91890000D02*
X188135000Y-88450000D01*
X188825000Y-90170000D02*
X188135000Y-90170000D01*
%TO.C,TP12*%
X171680000Y-90170000D02*
G75*
G03*
X171680000Y-90170000I-1500000J0D01*
G01*
%TO.C,TP14*%
X171680000Y-109855000D02*
G75*
G03*
X171680000Y-109855000I-1500000J0D01*
G01*
D13*
%TO.C,S1*%
X90425000Y-125905000D02*
X90425000Y-120875000D01*
X104505000Y-125905000D02*
X90425000Y-125905000D01*
X92345000Y-119205000D02*
X106425000Y-119205000D01*
X106425000Y-119205000D02*
X106425000Y-124235000D01*
D14*
X94525000Y-126355000D02*
G75*
G03*
X94525000Y-126355000I-100000J0D01*
G01*
D15*
%TO.C,U1*%
X115189000Y-118745000D02*
X115189000Y-123825000D01*
X115189000Y-123825000D02*
X123571000Y-123825000D01*
X115316000Y-120015000D02*
X115745260Y-120015000D01*
X117934740Y-120015000D02*
X118285260Y-120015000D01*
X120474740Y-120015000D02*
X120825260Y-120015000D01*
X123014740Y-120015000D02*
X123444000Y-120015000D01*
X123571000Y-118745000D02*
X115189000Y-118745000D01*
X123571000Y-123825000D02*
X123571000Y-118745000D01*
X113538000Y-120015000D02*
G75*
G03*
X113538000Y-120015000I-127000J0D01*
G01*
D12*
%TO.C,D1*%
X113005000Y-129900000D02*
X113005000Y-132990000D01*
X118554999Y-131445462D02*
G75*
G03*
X113005001Y-129900170I-2989999J462D01*
G01*
X113005000Y-132989830D02*
G75*
G03*
X118555000Y-131444538I2560000J1544830D01*
G01*
X118065000Y-131445000D02*
G75*
G03*
X118065000Y-131445000I-2500000J0D01*
G01*
%TO.C,R1*%
X103735000Y-132715000D02*
X103045000Y-132715000D01*
X103045000Y-134435000D02*
X103045000Y-130995000D01*
X103045000Y-130995000D02*
X93805000Y-130995000D01*
X93805000Y-134435000D02*
X103045000Y-134435000D01*
X93805000Y-130995000D02*
X93805000Y-134435000D01*
X93115000Y-132715000D02*
X93805000Y-132715000D01*
%TO.C,TP3*%
X83750000Y-112325000D02*
X81350000Y-112325000D01*
X83750000Y-109925000D02*
X83750000Y-112325000D01*
X81350000Y-112325000D02*
X81350000Y-109925000D01*
X81350000Y-109925000D02*
X83750000Y-109925000D01*
%TO.C,TP15*%
X171680000Y-120015000D02*
G75*
G03*
X171680000Y-120015000I-1500000J0D01*
G01*
%TO.C,D2*%
X193650000Y-57510000D02*
X193650000Y-60600000D01*
X199199999Y-59055462D02*
G75*
G03*
X193650001Y-57510170I-2989999J462D01*
G01*
X193650000Y-60599830D02*
G75*
G03*
X199200000Y-59054538I2560000J1544830D01*
G01*
X198710000Y-59055000D02*
G75*
G03*
X198710000Y-59055000I-2500000J0D01*
G01*
%TO.C,D4*%
X193655000Y-77830000D02*
X193655000Y-80920000D01*
X199204999Y-79375462D02*
G75*
G03*
X193655001Y-77830170I-2989999J462D01*
G01*
X193655000Y-80919830D02*
G75*
G03*
X199205000Y-79374538I2560000J1544830D01*
G01*
X198715000Y-79375000D02*
G75*
G03*
X198715000Y-79375000I-2500000J0D01*
G01*
D14*
%TO.C,U4*%
X165425001Y-89425000D02*
X165425001Y-91440000D01*
X145724999Y-89425000D02*
X165425001Y-89425000D01*
X145724999Y-89425000D02*
X145724999Y-94725000D01*
X165425001Y-92710000D02*
X165425001Y-94725000D01*
X145724999Y-94725000D02*
X165425001Y-94725000D01*
X165425001Y-91440000D02*
G75*
G03*
X165425001Y-92710000I0J-635000D01*
G01*
D16*
X165890001Y-88265000D02*
G75*
G03*
X165890001Y-88265000I-125001J0D01*
G01*
D17*
X164724999Y-90425001D02*
G75*
G03*
X164724999Y-90425001I-299999J0D01*
G01*
D12*
%TO.C,D3*%
X193655000Y-67670000D02*
X193655000Y-70760000D01*
X199204999Y-69215462D02*
G75*
G03*
X193655001Y-67670170I-2989999J462D01*
G01*
X193655000Y-70759830D02*
G75*
G03*
X199205000Y-69214538I2560000J1544830D01*
G01*
X198715000Y-69215000D02*
G75*
G03*
X198715000Y-69215000I-2500000J0D01*
G01*
%TO.C,R9*%
X178205000Y-79375000D02*
X178895000Y-79375000D01*
X178895000Y-77655000D02*
X178895000Y-81095000D01*
X178895000Y-81095000D02*
X188135000Y-81095000D01*
X188135000Y-77655000D02*
X178895000Y-77655000D01*
X188135000Y-81095000D02*
X188135000Y-77655000D01*
X188825000Y-79375000D02*
X188135000Y-79375000D01*
%TO.C,TP13*%
X171680000Y-100330000D02*
G75*
G03*
X171680000Y-100330000I-1500000J0D01*
G01*
%TO.C,C6*%
X156740800Y-108640000D02*
X156295800Y-108640000D01*
X156740800Y-108640000D02*
X156740800Y-114880000D01*
X154445800Y-108640000D02*
X154000800Y-108640000D01*
X154000800Y-108640000D02*
X154000800Y-114880000D01*
X156740800Y-114880000D02*
X156295800Y-114880000D01*
X154445800Y-114880000D02*
X154000800Y-114880000D01*
%TO.C,D5*%
X193655000Y-87990000D02*
X193655000Y-91080000D01*
X199204999Y-89535462D02*
G75*
G03*
X193655001Y-87990170I-2989999J462D01*
G01*
X193655000Y-91079830D02*
G75*
G03*
X199205000Y-89534538I2560000J1544830D01*
G01*
X198715000Y-89535000D02*
G75*
G03*
X198715000Y-89535000I-2500000J0D01*
G01*
%TO.C,C5*%
X153685000Y-62130000D02*
X153685000Y-62575000D01*
X153685000Y-62130000D02*
X159925000Y-62130000D01*
X153685000Y-64425000D02*
X153685000Y-64870000D01*
X153685000Y-64870000D02*
X159925000Y-64870000D01*
X159925000Y-62130000D02*
X159925000Y-62575000D01*
X159925000Y-64425000D02*
X159925000Y-64870000D01*
%TO.C,R8*%
X178205000Y-68580000D02*
X178895000Y-68580000D01*
X178895000Y-66860000D02*
X178895000Y-70300000D01*
X178895000Y-70300000D02*
X188135000Y-70300000D01*
X188135000Y-66860000D02*
X178895000Y-66860000D01*
X188135000Y-70300000D02*
X188135000Y-66860000D01*
X188825000Y-68580000D02*
X188135000Y-68580000D01*
%TO.C,TP10*%
X171680000Y-68580000D02*
G75*
G03*
X171680000Y-68580000I-1500000J0D01*
G01*
%TO.C,D9*%
X193655000Y-128630000D02*
X193655000Y-131720000D01*
X199204999Y-130175462D02*
G75*
G03*
X193655001Y-128630170I-2989999J462D01*
G01*
X193655000Y-131719830D02*
G75*
G03*
X199205000Y-130174538I2560000J1544830D01*
G01*
X198715000Y-130175000D02*
G75*
G03*
X198715000Y-130175000I-2500000J0D01*
G01*
%TO.C,TP7*%
X148935800Y-132715000D02*
G75*
G03*
X148935800Y-132715000I-1500000J0D01*
G01*
%TO.C,R4*%
X150265000Y-70485000D02*
X150955000Y-70485000D01*
X150955000Y-68765000D02*
X150955000Y-72205000D01*
X150955000Y-72205000D02*
X160195000Y-72205000D01*
X160195000Y-68765000D02*
X150955000Y-68765000D01*
X160195000Y-72205000D02*
X160195000Y-68765000D01*
X160885000Y-70485000D02*
X160195000Y-70485000D01*
%TO.C,R6*%
X136005800Y-124055000D02*
X136005800Y-123365000D01*
X134285800Y-123365000D02*
X137725800Y-123365000D01*
X137725800Y-123365000D02*
X137725800Y-114125000D01*
X134285800Y-114125000D02*
X134285800Y-123365000D01*
X137725800Y-114125000D02*
X134285800Y-114125000D01*
X136005800Y-113435000D02*
X136005800Y-114125000D01*
%TO.C,TP8*%
X156555800Y-132715000D02*
G75*
G03*
X156555800Y-132715000I-1500000J0D01*
G01*
%TO.C,R14*%
X178205000Y-130175000D02*
X178895000Y-130175000D01*
X178895000Y-128455000D02*
X178895000Y-131895000D01*
X178895000Y-131895000D02*
X188135000Y-131895000D01*
X188135000Y-128455000D02*
X178895000Y-128455000D01*
X188135000Y-131895000D02*
X188135000Y-128455000D01*
X188825000Y-130175000D02*
X188135000Y-130175000D01*
%TO.C,D8*%
X193650000Y-118470000D02*
X193650000Y-121560000D01*
X199199999Y-120015462D02*
G75*
G03*
X193650001Y-118470170I-2989999J462D01*
G01*
X193650000Y-121559830D02*
G75*
G03*
X199200000Y-120014538I2560000J1544830D01*
G01*
X198710000Y-120015000D02*
G75*
G03*
X198710000Y-120015000I-2500000J0D01*
G01*
%TO.C,TP1*%
X81350000Y-117545000D02*
X83750000Y-117545000D01*
X81350000Y-119945000D02*
X81350000Y-117545000D01*
X83750000Y-117545000D02*
X83750000Y-119945000D01*
X83750000Y-119945000D02*
X81350000Y-119945000D01*
%TO.C,U2*%
X142795000Y-53290000D02*
X142795000Y-63570000D01*
X142795000Y-63570000D02*
X149265000Y-63570000D01*
X145030000Y-53290000D02*
X142795000Y-53290000D01*
X149265000Y-53290000D02*
X147030000Y-53290000D01*
X149265000Y-63570000D02*
X149265000Y-53290000D01*
X145030000Y-53290000D02*
G75*
G03*
X147030000Y-53290000I1000000J0D01*
G01*
%TO.C,C7*%
X138965000Y-93925000D02*
X139410000Y-93925000D01*
X138965000Y-93925000D02*
X138965000Y-87685000D01*
X141260000Y-93925000D02*
X141705000Y-93925000D01*
X141705000Y-93925000D02*
X141705000Y-87685000D01*
X138965000Y-87685000D02*
X139410000Y-87685000D01*
X141260000Y-87685000D02*
X141705000Y-87685000D01*
%TO.C,TP6*%
X140680800Y-132715000D02*
G75*
G03*
X140680800Y-132715000I-1500000J0D01*
G01*
%TO.C,TP11*%
X171680000Y-79375000D02*
G75*
G03*
X171680000Y-79375000I-1500000J0D01*
G01*
%TO.C,TP2*%
X129770000Y-120015000D02*
G75*
G03*
X129770000Y-120015000I-1500000J0D01*
G01*
%TO.C,R7*%
X178205000Y-59055000D02*
X178895000Y-59055000D01*
X178895000Y-57335000D02*
X178895000Y-60775000D01*
X178895000Y-60775000D02*
X188135000Y-60775000D01*
X188135000Y-57335000D02*
X178895000Y-57335000D01*
X188135000Y-60775000D02*
X188135000Y-57335000D01*
X188825000Y-59055000D02*
X188135000Y-59055000D01*
%TO.C,R13*%
X178205000Y-120015000D02*
X178895000Y-120015000D01*
X178895000Y-118295000D02*
X178895000Y-121735000D01*
X178895000Y-121735000D02*
X188135000Y-121735000D01*
X188135000Y-118295000D02*
X178895000Y-118295000D01*
X188135000Y-121735000D02*
X188135000Y-118295000D01*
X188825000Y-120015000D02*
X188135000Y-120015000D01*
%TO.C,R11*%
X178205000Y-100330000D02*
X178895000Y-100330000D01*
X178895000Y-98610000D02*
X178895000Y-102050000D01*
X178895000Y-102050000D02*
X188135000Y-102050000D01*
X188135000Y-98610000D02*
X178895000Y-98610000D01*
X188135000Y-102050000D02*
X188135000Y-98610000D01*
X188825000Y-100330000D02*
X188135000Y-100330000D01*
%TO.C,D7*%
X193655000Y-108310000D02*
X193655000Y-111400000D01*
X199204999Y-109855462D02*
G75*
G03*
X193655001Y-108310170I-2989999J462D01*
G01*
X193655000Y-111399830D02*
G75*
G03*
X199205000Y-109854538I2560000J1544830D01*
G01*
X198715000Y-109855000D02*
G75*
G03*
X198715000Y-109855000I-2500000J0D01*
G01*
%TO.C,R3*%
X142010000Y-76835000D02*
X142700000Y-76835000D01*
X142700000Y-75115000D02*
X142700000Y-78555000D01*
X142700000Y-78555000D02*
X151940000Y-78555000D01*
X151940000Y-75115000D02*
X142700000Y-75115000D01*
X151940000Y-78555000D02*
X151940000Y-75115000D01*
X152630000Y-76835000D02*
X151940000Y-76835000D01*
%TO.C,D6*%
X193650000Y-98150000D02*
X193650000Y-101240000D01*
X199199999Y-99695462D02*
G75*
G03*
X193650001Y-98150170I-2989999J462D01*
G01*
X193650000Y-101239830D02*
G75*
G03*
X199200000Y-99694538I2560000J1544830D01*
G01*
X198710000Y-99695000D02*
G75*
G03*
X198710000Y-99695000I-2500000J0D01*
G01*
%TD*%
%LPC*%
D18*
%TO.C,C3*%
X134620000Y-58380000D03*
X134620000Y-53380000D03*
%TD*%
%TO.C,C2*%
X111125000Y-124420000D03*
X111125000Y-119420000D03*
%TD*%
D19*
%TO.C,U3*%
X142035800Y-110490000D03*
D20*
X142035800Y-113030000D03*
X142035800Y-115570000D03*
X142035800Y-118110000D03*
X142035800Y-120650000D03*
X142035800Y-123190000D03*
X142035800Y-125730000D03*
X149975800Y-125730000D03*
X149975800Y-123190000D03*
X149975800Y-120650000D03*
X149975800Y-118110000D03*
X149975800Y-115570000D03*
X149975800Y-113030000D03*
X149975800Y-110490000D03*
%TD*%
D18*
%TO.C,C4*%
X156845000Y-58975000D03*
X156845000Y-53975000D03*
%TD*%
D21*
%TO.C,H3*%
X78805800Y-129540000D03*
X79750381Y-127259581D03*
X79750381Y-131820419D03*
X82030800Y-126315000D03*
D22*
X82030800Y-129540000D03*
D21*
X82030800Y-132765000D03*
X84311219Y-127259581D03*
X84311219Y-131820419D03*
X85255800Y-129540000D03*
%TD*%
D23*
%TO.C,TP17*%
X81915000Y-71755000D03*
%TD*%
%TO.C,TP5*%
X136005800Y-107315000D03*
%TD*%
D24*
%TO.C,J1*%
X96520000Y-107540000D03*
X109220000Y-107540000D03*
%TD*%
D21*
%TO.C,H1*%
X78805800Y-55830000D03*
X79750381Y-53549581D03*
X79750381Y-58110419D03*
X82030800Y-52605000D03*
D22*
X82030800Y-55830000D03*
D21*
X82030800Y-59055000D03*
X84311219Y-53549581D03*
X84311219Y-58110419D03*
X85255800Y-55830000D03*
%TD*%
D23*
%TO.C,TP9*%
X170180000Y-59055000D03*
%TD*%
D18*
%TO.C,R12*%
X177165000Y-109855000D03*
D25*
X189865000Y-109855000D03*
%TD*%
D23*
%TO.C,TP16*%
X170815000Y-130175000D03*
%TD*%
D18*
%TO.C,R2*%
X132080000Y-70485000D03*
D25*
X144780000Y-70485000D03*
%TD*%
D18*
%TO.C,C1*%
X124460000Y-127040000D03*
X124460000Y-132040000D03*
%TD*%
%TO.C,R10*%
X177165000Y-90170000D03*
D25*
X189865000Y-90170000D03*
%TD*%
D23*
%TO.C,TP12*%
X170180000Y-90170000D03*
%TD*%
%TO.C,TP14*%
X170180000Y-109855000D03*
%TD*%
D26*
%TO.C,S1*%
X94425000Y-123655000D03*
D27*
X98425000Y-123655000D03*
X102425000Y-123655000D03*
D28*
X90925000Y-119455000D03*
X105925000Y-125655000D03*
%TD*%
D29*
%TO.C,U1*%
X116840000Y-120015000D03*
D30*
X119380000Y-120015000D03*
X121920000Y-120015000D03*
%TD*%
D31*
%TO.C,D1*%
X114295000Y-131445000D03*
D32*
X116835000Y-131445000D03*
%TD*%
D18*
%TO.C,R1*%
X104775000Y-132715000D03*
D25*
X92075000Y-132715000D03*
%TD*%
D33*
%TO.C,TP3*%
X82550000Y-111125000D03*
%TD*%
D21*
%TO.C,H4*%
X206065400Y-129164600D03*
X207009981Y-126884181D03*
X207009981Y-131445019D03*
X209290400Y-125939600D03*
D22*
X209290400Y-129164600D03*
D21*
X209290400Y-132389600D03*
X211570819Y-126884181D03*
X211570819Y-131445019D03*
X212515400Y-129164600D03*
%TD*%
D23*
%TO.C,TP15*%
X170180000Y-120015000D03*
%TD*%
D21*
%TO.C,H2*%
X205805800Y-55830000D03*
X206750381Y-53549581D03*
X206750381Y-58110419D03*
X209030800Y-52605000D03*
D22*
X209030800Y-55830000D03*
D21*
X209030800Y-59055000D03*
X211311219Y-53549581D03*
X211311219Y-58110419D03*
X212255800Y-55830000D03*
%TD*%
D31*
%TO.C,D2*%
X194940000Y-59055000D03*
D32*
X197480000Y-59055000D03*
%TD*%
D31*
%TO.C,D4*%
X194945000Y-79375000D03*
D32*
X197485000Y-79375000D03*
%TD*%
D34*
%TO.C,U4*%
X164465000Y-88265000D03*
D24*
X161925000Y-88265000D03*
X159385000Y-88265000D03*
X156845000Y-88265000D03*
X154305000Y-88265000D03*
X151765000Y-88265000D03*
X149225000Y-88265000D03*
X146685000Y-88265000D03*
X146685000Y-95885000D03*
X149225000Y-95885000D03*
X151765000Y-95885000D03*
X154305000Y-95885000D03*
X156845000Y-95885000D03*
X159385000Y-95885000D03*
X161925000Y-95885000D03*
X164465000Y-95885000D03*
%TD*%
D31*
%TO.C,D3*%
X194945000Y-69215000D03*
D32*
X197485000Y-69215000D03*
%TD*%
D18*
%TO.C,R9*%
X177165000Y-79375000D03*
D25*
X189865000Y-79375000D03*
%TD*%
D23*
%TO.C,TP13*%
X170180000Y-100330000D03*
%TD*%
D18*
%TO.C,C6*%
X155370800Y-109260000D03*
X155370800Y-114260000D03*
%TD*%
D31*
%TO.C,D5*%
X194945000Y-89535000D03*
D32*
X197485000Y-89535000D03*
%TD*%
D18*
%TO.C,C5*%
X154305000Y-63500000D03*
X159305000Y-63500000D03*
%TD*%
%TO.C,R8*%
X177165000Y-68580000D03*
D25*
X189865000Y-68580000D03*
%TD*%
D23*
%TO.C,TP10*%
X170180000Y-68580000D03*
%TD*%
D31*
%TO.C,D9*%
X194945000Y-130175000D03*
D32*
X197485000Y-130175000D03*
%TD*%
D23*
%TO.C,TP7*%
X147435800Y-132715000D03*
%TD*%
D18*
%TO.C,R4*%
X149225000Y-70485000D03*
D25*
X161925000Y-70485000D03*
%TD*%
D18*
%TO.C,R6*%
X136005800Y-125095000D03*
D25*
X136005800Y-112395000D03*
%TD*%
D23*
%TO.C,TP8*%
X155055800Y-132715000D03*
%TD*%
D18*
%TO.C,R14*%
X177165000Y-130175000D03*
D25*
X189865000Y-130175000D03*
%TD*%
D31*
%TO.C,D8*%
X194940000Y-120015000D03*
D32*
X197480000Y-120015000D03*
%TD*%
D33*
%TO.C,TP1*%
X82550000Y-118745000D03*
%TD*%
D35*
%TO.C,U2*%
X140950000Y-54620000D03*
D25*
X140950000Y-57160000D03*
X140950000Y-59700000D03*
X140950000Y-62240000D03*
X151110000Y-62240000D03*
X151110000Y-59700000D03*
X151110000Y-57160000D03*
X151110000Y-54620000D03*
%TD*%
D18*
%TO.C,C7*%
X140335000Y-93305000D03*
X140335000Y-88305000D03*
%TD*%
D23*
%TO.C,TP6*%
X139180800Y-132715000D03*
%TD*%
%TO.C,TP11*%
X170180000Y-79375000D03*
%TD*%
%TO.C,TP2*%
X128270000Y-120015000D03*
%TD*%
D18*
%TO.C,R7*%
X177165000Y-59055000D03*
D25*
X189865000Y-59055000D03*
%TD*%
D18*
%TO.C,R13*%
X177165000Y-120015000D03*
D25*
X189865000Y-120015000D03*
%TD*%
D18*
%TO.C,R11*%
X177165000Y-100330000D03*
D25*
X189865000Y-100330000D03*
%TD*%
D31*
%TO.C,D7*%
X194945000Y-109855000D03*
D32*
X197485000Y-109855000D03*
%TD*%
D18*
%TO.C,R3*%
X140970000Y-76835000D03*
D25*
X153670000Y-76835000D03*
%TD*%
D31*
%TO.C,D6*%
X194940000Y-99695000D03*
D32*
X197480000Y-99695000D03*
%TD*%
%LPD*%
M02*
